<svg xmlns="http://www.w3.org/2000/svg" viewBox="0 0 23.89 22.86"><defs><style>.cls-1{isolation:isolate;}.cls-2{fill:#45211b;}.cls-3{fill:#d3cdaa;}.cls-4{mix-blend-mode:screen;}</style></defs><title>ask_1</title><g class="cls-1"><g id="Layer_2" data-name="Layer 2"><g id="Layer_1-2" data-name="Layer 1"><ellipse class="cls-2" cx="11.94" cy="9.29" rx="11.94" ry="9.29"/><path class="cls-3" d="M13.47,13.85a1.7,1.7,0,1,1-1.69-1.69A1.7,1.7,0,0,1,13.47,13.85Z"/><path class="cls-3" d="M13.2,11H10.13v-.18a4.15,4.15,0,0,1,.18-1.35,3,3,0,0,1,.56-.94A17.8,17.8,0,0,1,12.59,7a1.67,1.67,0,0,0,.78-1.19A1.15,1.15,0,0,0,13,4.94a1.38,1.38,0,0,0-1-.32,1.58,1.58,0,0,0-1.16.47,2.4,2.4,0,0,0-.55,1.39L7.19,6.09A4.51,4.51,0,0,1,8.51,3.27,5,5,0,0,1,12.1,2.15a5.37,5.37,0,0,1,3.05.79A3.2,3.2,0,0,1,16.7,5.73a2.71,2.71,0,0,1-.4,1.38,7.13,7.13,0,0,1-1.67,1.67A4.77,4.77,0,0,0,13.46,10a2.46,2.46,0,0,0-.26,1Z"/><g class="cls-4"><path class="cls-3" d="M9,3.75a4.79,4.79,0,0,1,3.4-1,5.07,5.07,0,0,1,2.89.74,2.93,2.93,0,0,1,.43.34A3.59,3.59,0,0,0,15,3.17a5.07,5.07,0,0,0-2.89-.74,4.79,4.79,0,0,0-3.4,1A4.16,4.16,0,0,0,7.51,5.85l.32,0A4.14,4.14,0,0,1,9,3.75Z"/><path class="cls-3" d="M10.86,9.86a2.57,2.57,0,0,1,.5-.84A14.56,14.56,0,0,1,13.05,7.5a1.9,1.9,0,0,0,.87-1.41A1.43,1.43,0,0,0,13.5,5l-.11-.08a1.48,1.48,0,0,1,.26.88,1.92,1.92,0,0,1-.88,1.41,15.69,15.69,0,0,0-1.69,1.52,2.57,2.57,0,0,0-.5.84,3.34,3.34,0,0,0-.17,1.16h.29A3,3,0,0,1,10.86,9.86Z"/><path class="cls-3" d="M10.64,14.13A1.41,1.41,0,0,1,12.9,13a1.41,1.41,0,1,0-2,2A1.41,1.41,0,0,1,10.64,14.13Z"/></g><path class="cls-3" d="M10.69,4.89a1.86,1.86,0,0,1,1.36-.55,1.64,1.64,0,0,1,1.17.39,1.44,1.44,0,0,1,.43,1.08,1.92,1.92,0,0,1-.88,1.41,19.22,19.22,0,0,0-1.61,1.43,30.48,30.48,0,0,1,3.26-.79l1.06-.19a3.93,3.93,0,0,0,.58-.7,2.4,2.4,0,0,0,.36-1.24A2.94,2.94,0,0,0,15,3.17a5.07,5.07,0,0,0-2.89-.74,4.79,4.79,0,0,0-3.4,1A4.16,4.16,0,0,0,7.51,5.85l2.6.32A2.46,2.46,0,0,1,10.69,4.89Z"/><polyline class="cls-2" points="10.21 16.97 14.89 22.86 13.38 16.37"/></g></g></g></svg>