<svg xmlns="http://www.w3.org/2000/svg" viewBox="0 0 24.99 21.84"><defs><style>.cls-1{fill:#260d0b;}</style></defs><title>breeding_2</title><g id="Layer_2" data-name="Layer 2"><g id="Layer_1-2" data-name="Layer 1"><path class="cls-1" d="M16,0h.17s.05,0,.08,0l5.43,1a.34.34,0,0,1,.22.12q1.53,2.11,3,4.24a.33.33,0,0,1,0,.22c-.32,1.77-.65,3.53-1,5.3a.47.47,0,0,1-.22.33L8.15,21.71l-.21.13-.14-.19L.17,11c-.05-.07-.11-.13-.17-.2v0l.05,0,12.06-8.1Zm3.75,4.76a1.39,1.39,0,0,0,2.77,0,1.39,1.39,0,0,0-1.38-1.36A1.37,1.37,0,0,0,19.76,4.76Z"/></g></g></svg>