<svg xmlns="http://www.w3.org/2000/svg" viewBox="0 0 24.26 24.31"><defs><style>.cls-1{fill:#45211b;stroke:#260d0b;stroke-miterlimit:10;stroke-width:0.2px;}</style></defs><title>farm_1</title><g id="Layer_2" data-name="Layer 2"><g id="Layer_1-2" data-name="Layer 1"><path class="cls-1" d="M1.64,12.23c-.13.21-.26.42-.38.63l-.43.76-.6-.32L.1,13.25v-.1c.09-.13.2-.26.28-.4L1.93,10,3.12,7.83C3.55,7.07,4,6.32,4.4,5.54a2,2,0,0,1,.74-.69L7.73,3.11l1.11-.75A1.54,1.54,0,0,1,9,2.28l.43.63-.53.37-.07.05h0L7.87,4l-1,.68,0,0-1,.67-.1.06a2.9,2.9,0,0,0-.29.19,1,1,0,0,0-.3.24,6.6,6.6,0,0,0-.36.64l-.06.11-1,1.76-.07.13-1,1.78,0,.09L1.71,12Z"/><path class="cls-1" d="M24.16,13.25l-.69.34a.57.57,0,0,1-.11-.14l-.54-1a1.74,1.74,0,0,1-.1-.19l-1-1.85h0l0,0-.06-.11-1-1.76-.07-.11-1-1.78-.06-.11a2,2,0,0,0-1-1.11l-.07,0-1-.68,0,0-1-.66-.07,0-1-.68,0,0-.46-.33.43-.65.58.36,1.44,1,2.25,1.53a1,1,0,0,1,.27.31c.44.77.87,1.54,1.3,2.31L22,9.32c.45.82.91,1.63,1.36,2.44.23.4.45.8.67,1.2,0,0,.09.08.13.13Z"/><path class="cls-1" d="M17.88,23.66v.07h-.46v0c-.11,0-.22,0-.33,0s-.44,0-.65,0v0h-.07v0c-.11,0-.22,0-.32,0s-.44,0-.66,0v0h-.07v0s-.06,0-.1,0h-3l-.05-.53h5.72Z"/><path class="cls-1" d="M6.91,23.73H6.84v0l-.41-.05v-.51h5.68v.53h-.9a.27.27,0,0,0-.14.07h0v0a.21.21,0,0,0-.11,0h-.75a.28.28,0,0,0-.12,0v0H10v0a.28.28,0,0,0-.12,0H8.07a.25.25,0,0,0-.11,0v0H7.89v0a.28.28,0,0,0-.12,0H7a.28.28,0,0,0-.12,0Z"/><path class="cls-1" d="M12.11,23.66v-.53H7.6v0h3.79l-.06-.51a.49.49,0,0,0,0-.16V20.88c0-.54,0-1.08,0-1.63h0V23.1h.69l0,0V18.23H6.39v0h5.69l0,0V13.35l0,0h-.69v3.86l-.06,0a.75.75,0,0,0,0-.16V15.06c0-.42,0-.84,0-1.26v-.48H7.59v0h4.51v-.51h0v.51h5.72v-.51h0V23.48a.83.83,0,0,0,0,.15v0h-.06v-.52H12.16l.05.53v0l0,0h0l0,0S12.11,23.67,12.11,23.66Zm1.35-10.35H12.17v.79c0,1.17,0,2.35,0,3.53v.06l0,.48h5.72V13.33h-.72v2.13c0,.56,0,1.13,0,1.69v.48h0l0-.48a.53.53,0,0,0,0-.12V13.32H15.27l-.52,0h0l-.09,0H13.46Zm-.1,5.45s0,0,0,0H12.18V23.1h4.39l.07,0,.48.05V19.38a.61.61,0,0,0,0-.11l0-.49h0v.49s0,.07,0,.1c0,1.2,0,2.41,0,3.61a.37.37,0,0,0,0,.11h.7V18.24H12.16v.48h1.19Z"/><path class="cls-1" d="M5.8,23.73h-2v-.08h2Z"/><path class="cls-1" d="M12.21,23.69v0h3s.07,0,.1,0h-.83a.58.58,0,0,0-.18,0h0a.42.42,0,0,0-.15,0h-.68a.58.58,0,0,0-.18,0h0a.59.59,0,0,0-.17,0Z"/><path class="cls-1" d="M8,23.7a.25.25,0,0,1,.11,0h1.8a.28.28,0,0,1,.12,0H9.22a.93.93,0,0,0-.22,0H9a.28.28,0,0,0-.12,0Z"/><path class="cls-1" d="M6.84,23.69v0h-1v-.08h.52Z"/><path class="cls-1" d="M12.11,23.66s0,0,0,0h-.84a.58.58,0,0,0-.18,0h0a.27.27,0,0,1,.14-.07Z"/><path class="cls-1" d="M11.1,23.73a.58.58,0,0,1,.18,0h.84l0,0Z"/><path class="cls-1" d="M12.21,23.69h.85a.59.59,0,0,1,.17,0H12.18Z"/><path class="cls-1" d="M8,23.7h.89a.28.28,0,0,1,.12,0H8Z"/><path class="cls-1" d="M13.26,23.73a.58.58,0,0,1,.18,0h.68a.42.42,0,0,1,.15,0Z"/><path class="cls-1" d="M14.31,23.73a.58.58,0,0,1,.18,0h.83v0Z"/><path class="cls-1" d="M17.42,23.7v0h-1v0Z"/><path class="cls-1" d="M15.39,23.73v0h1v0Z"/><path class="cls-1" d="M11,23.7v0h-1v0Z"/><path class="cls-1" d="M9,23.73a.93.93,0,0,1,.22,0H10v0Z"/><path class="cls-1" d="M6.91,23.73v0h1v0Z"/><path class="cls-1" d="M3.77,23.65v.08H3.7v-.11h.06Z"/><path class="cls-1" d="M5.86,23.65v.08H5.8v-.11h.06Z"/><path class="cls-1" d="M9.46,2.91,9,2.28a.68.68,0,0,1,.12-.12L11.59.51l.52-.32a.8.8,0,0,1,0,.15c0,.26,0,.51,0,.77l-.07.06-2,1.36L10,2.58Z"/><path class="cls-1" d="M15.29,2.28l-.43.65-.55-.36-.06,0-.19-.12L12.22,1.17l-.05,0V.18l1,.64,1.51,1Z"/><path class="cls-1" d="M12.18.18v.94h0c0-.26,0-.51,0-.77a.8.8,0,0,0,0-.15Z"/><path class="cls-1" d="M3.7,23.62v0h-1v0a1.48,1.48,0,0,0,0-.21V14.07c0-.45,0-.9,0-1.34V12.6L3,12.15l.71-1.29V23.62Z"/><path class="cls-1" d="M2.65,23.66H1.71s0-.06,0-.1q0-4.57,0-9.16a.55.55,0,0,0,.12-.14l.29-.52c.17-.32.35-.63.53-1V23.66Z"/><path class="cls-1" d="M1.71,14.4q0,4.59,0,9.16s0,.07,0,.1H1.66a1.23,1.23,0,0,1,0-.19V12.23L1.71,12c0,.11,0,.21,0,.31C1.7,13,1.7,13.72,1.71,14.4Z"/><path class="cls-1" d="M2.65,23.66v0h.06v0Z"/><path class="cls-1" d="M18.54,5.42a2,2,0,0,1,1,1.11V23.66h-1V5.59A.53.53,0,0,1,18.54,5.42Z"/><path class="cls-1" d="M19.57,6.64l1,1.78V23.66h-1V6.81A1,1,0,0,1,19.57,6.64Z"/><path class="cls-1" d="M20.63,8.53l1,1.76V23.66h-1a1.13,1.13,0,0,1,0-.18V8.7A1.36,1.36,0,0,1,20.63,8.53Z"/><path class="cls-1" d="M17.9,12.76h0l-.43,0V4.84s0-.1,0-.15l1,.68c0,.09,0,.18,0,.27v18h-.52V12.91A.83.83,0,0,0,17.9,12.76Z"/><path class="cls-1" d="M21.69,10.42l1,1.85c0,.11,0,.22,0,.32V23.65h-.65c-.14,0-.28,0-.42,0a2.06,2.06,0,0,0,0-.26V10.67A2,2,0,0,1,21.69,10.42Z"/><path class="cls-1" d="M21.69,10.42a2,2,0,0,0,0,.25V23.42a2.06,2.06,0,0,1,0,.26l0,0V10.29l.06.11v0Z"/><path class="cls-1" d="M18.46,23.66v-18c0-.09,0-.18,0-.27l.07,0a.53.53,0,0,0,0,.17V23.67Z"/><path class="cls-1" d="M19.57,6.64a1,1,0,0,0,0,.17V23.67h0V6.53Z"/><path class="cls-1" d="M20.63,8.53a1.36,1.36,0,0,0,0,.17V23.47a1.13,1.13,0,0,0,0,.18l0,0,0,0V8.42Z"/><path class="cls-1" d="M3.7,10.86,3,12.15l-.27.45V10.44a1.22,1.22,0,0,0,0-.17l1-1.78v2.37Z"/><path class="cls-1" d="M3.76,8.36l1-1.76V9c-.14.24-.28.48-.41.72l-.54,1a1.13,1.13,0,0,1,0-.18C3.76,9.75,3.76,9.06,3.76,8.36Z"/><path class="cls-1" d="M1.71,14.4c0-.68,0-1.37,0-2.05,0-.1,0-.2,0-.31l.94-1.68v2.43c-.18.32-.36.63-.53,1l-.29.52A.55.55,0,0,1,1.71,14.4Z"/><path class="cls-1" d="M4.81,6.49a6.6,6.6,0,0,1,.36-.64,1,1,0,0,1,.3-.24,2.9,2.9,0,0,1,.29-.19,1,1,0,0,1,0,.17c0,.46,0,.92,0,1.37V7c-.13.25-.26.5-.4.74s-.36.64-.55,1l0-.18Z"/><path class="cls-1" d="M9.46,2.91,10,2.58V3.76L9,4.41l0,0-.69.43A2.06,2.06,0,0,1,8,5a1.67,1.67,0,0,0,.1-.83A.22.22,0,0,1,8.23,4a4.53,4.53,0,0,0,.46-.3.28.28,0,0,0,.15-.31h0l.07-.05Z"/><path class="cls-1" d="M5.86,5.36l1-.67V5.82c-.15.1-.3.19-.44.3a1.42,1.42,0,0,0-.24.25c-.07.1-.11.21-.18.31a.68.68,0,0,1-.12.12Z"/><path class="cls-1" d="M6.87,4.67l1-.68,0,0V5.1L7.73,5,7.6,5.3l-.69.45V4.84A.53.53,0,0,0,6.87,4.67Z"/><path class="cls-1" d="M8.84,3.34a.28.28,0,0,1-.15.31,4.53,4.53,0,0,1-.46.3.22.22,0,0,0-.11.22A1.67,1.67,0,0,1,8,5H8c0-.28,0-.56,0-.84,0,0,0-.09-.06-.14l0,0Z"/><path class="cls-1" d="M2.65,12.73V10.36l0-.09a1.22,1.22,0,0,1,0,.17v2.29Z"/><path class="cls-1" d="M3.76,8.36c0,.7,0,1.39,0,2.09a1.13,1.13,0,0,0,0,.18l0,.16H3.7V8.49Z"/><path class="cls-1" d="M4.81,6.49V8.55l0,.18,0,.13-.06,0V6.6Z"/><path class="cls-1" d="M5.86,5.36V7H5.8c0-.45,0-.91,0-1.37a1,1,0,0,0,0-.17Z"/><path class="cls-1" d="M6.87,4.67a.53.53,0,0,1,0,.17v1H6.84V4.69Z"/><path class="cls-1" d="M8.93,3.28l-.07.05Z"/><path class="cls-1" d="M15.36,3.28l1,.68v8.77h-.21l-.74,0h-.06V3.28Z"/><path class="cls-1" d="M14.31,2.57l.55.36.46.33v9.47h-1V9l.16,0h0a1,1,0,0,0,0-.17q0-2,0-4a1,1,0,0,0,0-.17h0l-.16,0Z"/><path class="cls-1" d="M16.44,4l1,.66v1q0,3.56,0,7.11h-1a.43.43,0,0,0,0-.05V4.16A.83.83,0,0,1,16.44,4Z"/><path class="cls-1" d="M15.32,12.73V3.26l0,0v9.45Z"/><path class="cls-1" d="M16.44,4a.83.83,0,0,0,0,.15v8.52a.43.43,0,0,1,0,.05h0V4Z"/><path class="cls-1" d="M17.41,12.73q0-3.56,0-7.11v-1l0,0s0,.1,0,.15v7.89Z"/><path class="cls-1" d="M21.69,10.42h0v0Z"/><path class="cls-1" d="M17.42,23.7h-1c.21,0,.43,0,.65,0S17.31,23.69,17.42,23.7Z"/><path class="cls-1" d="M16.37,23.7h-1c.22,0,.44,0,.66,0S16.26,23.69,16.37,23.7Z"/><path class="cls-1" d="M6.84,23.69l-.46,0V21.43c0-1.07,0-2.14,0-3.2h0v.49h1.1a1.52,1.52,0,0,1,.21,0l-.12,0H7.17v.47H7.11v-.44l-.67,0a.62.62,0,0,0,0,.12V23a.45.45,0,0,0,0,.11H7.1l.05-.47h0v.47h.42v0H6.43v.51Z"/><path class="cls-1" d="M7.89,23.7h-1a.28.28,0,0,1,.12,0h.74A.28.28,0,0,1,7.89,23.7Z"/><path class="cls-1" d="M11,23.7h-1a.28.28,0,0,1,.12,0h.75A.21.21,0,0,1,11,23.7Z"/><path class="cls-1" d="M6.39,18.23c0,1.06,0,2.13,0,3.2v2.22H5.86V6.8A.68.68,0,0,0,6,6.68c.07-.1.11-.21.18-.31a1.42,1.42,0,0,1,.24-.25c.14-.11.29-.2.44-.3v6.91l-.42,0h0a.94.94,0,0,0,0,.16V14.5c0,1.23,0,2.46,0,3.69Z"/><path class="cls-1" d="M7.59,23.1H7.17v-.47l.08-.11.32-.32.36-.37.09-.1,0,0h0l0,0h0l0,0h0l0,0h0l0,0h0l0,0h0l0,0h0l.57-.56-.53-.53L7.93,20l0,0-.12-.12h0l0,0h0l0,0h0l0,0h0l0,0-.07-.07,0,0h0l0,0h0l0,0h0l0,0h0l0,0h0l0,0h0l0,0h0l0,0-.07-.06-.1-.12v-.47h.44l.59.59.25.26.46.46,0,0h0l0,0H9l.29.31.67-.7.9-.92,0,0,0,0h.52l0,0-.07.43h0l-.46.48,0,0h0l0,0h0l0,0h0l0,0h0l0,0h0l-1.08,1,1,1,.66.69.06.51h-.47L10.84,23,9.5,21.66l-.16-.16-.11-.05-.33.34-.52.53-.76.78h0Z"/><path class="cls-1" d="M13.37,23.1h-.44v-.49l.24-.26.26-.26.13-.13,0,0h0l0,0h0l0,0h0l0,0h0l0,0h0l0,0h0l0,0h0l0,0h0l0,0s0,0,0,0l.71-.73-.71-.69-.42-.44-.11-.11,0,0h0l0,0h0l0,0h0l0,0h0l0,0h0l-.23-.25v-.47h.44l.84.86.43.43.38.4.5-.53,1.14-1.16h.46l0,.49L16.4,20l-.95,1,.84.83.83.85v.5l-.48-.05,0,0-1.15-1.18h0l0,0h0l0,0c-.35-.42-.35-.42-.72,0l-.05.06-.38.4Z"/><path class="cls-1" d="M17.09,17.15l0,.48h-.46l-.42-.43h0l0,0h0l0,0h0l0,0h0l0,0h0l0,0h0l0,0h0l0,0h0l0,0h0l0,0h0l0,0h0l0,0L15,16l0,0,0,0,0,0,0,0,0,0,0,0h0l0,0,0,0,0,0,0,0,0,0v0L15,16l-.32.33,0,0h0L14,17l-.58.6-.05,0h0l0,.05h-.43v-.47l.16-.19.34-.34.45-.47.66-.66.09,0,0,0,0,0,0,0,0,0h0v0l0,0,0,0,0,0,0,0-.09-.07-.67-.68h0l0,0h0l0,0h0l0,0h0l0,0h0l0,0h0l0,0h0l0,0h0l0,0h0l0,0h0l0,0-.13-.14L13.12,14l-.2-.22v-.47h.44l0,0,.87.89.38.39L15,15l.07.06,0,0,0,0,0,0v0l0,0,0,0V15l.46-.49,1.08-1.11.07-.06h.45v.48l-.08.07-1.53,1.57h-.08l0,0,0,0,0,0,0,0,0,0,0,0,0,0h0l0,0,0,0,0,0,0,0,0,0,0,0,0,0,.07.06Z"/><path class="cls-1" d="M7.59,13.32h0l.74.75h0l0,0,.64.66.21.23.07.06h0l0,0h0l0,0h0l0,0h0l0,0h0l0,0h0l0,0h0l0,0h0l0,0h0l0,0h0l0,0h0l0,0h0l.06.07.53.55.52.52h0l0,0h0l0,0h0l0,0h0l0,0h0l0,0h0l0,0,.36.39.06,0a.37.37,0,0,1,.07.12c0,.1,0,.2,0,.3l0,0-.51,0-.12-.11L10,16.68,9.26,16l-.19.21-.8.82-.15.16,0,.05h0l0,0H8l0,0H8l0,0-.26.26,0,0h0l-.05,0H7.17v-.47L7.3,17h0l0,0h0l0,0h0l0,0h0l0,0h0l0,0h0l0,0h0l0,0h0l0,0h0l0,0L8,16.34l.39-.4.46-.46L8.35,15h0l0,0h0l0,0h0l0,0h0l0,0h0l0,0h0l0,0h0l0,0h0l0,0h0l0,0h0l0,0-.45-.46L7.33,14l0,0h0l-.14-.15v-.47Z"/><path class="cls-1" d="M12.15,12.76h-.07l-.15,0H11.1V9h.31l.67,0h.06v3.79a0,0,0,0,0,0,0Z"/><path class="cls-1" d="M17.16,19.24v-.46h.71v4.3h-.7a.37.37,0,0,1,0-.11c0-1.2,0-2.41,0-3.61,0,0,0-.07,0-.1h0A0,0,0,0,1,17.16,19.24Z"/><path class="cls-1" d="M17.16,17.15c0-.56,0-1.13,0-1.69V13.33h.72v4.3h-.71v-.46h0A0,0,0,0,0,17.16,17.15Z"/><path class="cls-1" d="M11.39,19.24l.07-.43h.65v4.26l0,0h-.69Z"/><path class="cls-1" d="M11.46,17.6c0-.1,0-.2,0-.3a.37.37,0,0,0-.07-.12V13.32h.69l0,0V17.6Z"/><path class="cls-1" d="M12.18,17.64c0-1.18,0-2.36,0-3.53v-.79h.69l0,.46v.06c0,.06,0,.12,0,.19v3.61Z"/><path class="cls-1" d="M12.87,23.1h-.69V18.78h.69Z"/><path class="cls-1" d="M12.08,12.75h0v.51H9.16l-.12,0H7.76l-.13,0H6.42v-.52h5.66Z"/><path class="cls-1" d="M7.73,18.75a1.52,1.52,0,0,0-.21,0H6.42v-.49h5.69v.48h-1l-.17,0H7.73Z"/><path class="cls-1" d="M17.87,12.79v.48H12.15v-.51h0l.2,0Z"/><path class="cls-1" d="M13.35,18.72H12.16v-.48h5.71v.47H13.35Z"/><path class="cls-1" d="M17.87,17.71v.47H12.15l0-.48h5.69Z"/><path class="cls-1" d="M15.51,15.44,17,13.87l.08-.07V17a.53.53,0,0,1,0,.12l-1.6-1.64Z"/><path class="cls-1" d="M12.11,17.73v.43l0,0H6.42V17.7h4.52a.8.8,0,0,0,.15,0Z"/><path class="cls-1" d="M16.4,20l.69-.72a.61.61,0,0,1,0,.11v3.24l-.83-.85c.11,0,.11-.07.11-.15Z"/><path class="cls-1" d="M11.32,22.59l-.66-.69a1.19,1.19,0,0,0,.08-.22V19.9h0l0,0h0l0,0h0l0,0h0l0,0h0l0,0,.46-.48c0,.55,0,1.09,0,1.63v1.55A.49.49,0,0,1,11.32,22.59Z"/><path class="cls-1" d="M11.33,17.14,11,16.75l0,0h0l0,0h0l0,0h0l0,0h0l0,0h0l0,0h0v-.36c0-.46,0-.91,0-1.37a1.21,1.21,0,0,0-.11-.3l.7-.72c0,.42,0,.84,0,1.26V17A.75.75,0,0,1,11.33,17.14Z"/><path class="cls-1" d="M11.36,13.8l-.7.72-.91.92-.09,0h0l0,0h0l0,0h0l0,0h0l0,0h0l0,0h0l0,0h0l0,0h0l0,0h0l0,0h0l0,0h0l0,0h0V15l.46-.48,0,0h0l0,0h0l1-1,.07-.06h.45Z"/><path class="cls-1" d="M14.62,21.82l.05-.06c.37-.38.37-.38.72,0l0,0h0l0,0h0c0,.36,0,.71,0,1.06,0,.11,0,.16.15.15s.36,0,.53,0l.37,0H14.73c0-.35,0-.7,0-1C14.73,22,14.66,21.9,14.62,21.82Z"/><path class="cls-1" d="M15,15l-.34-.36s.11-.07.11-.1c0-.4,0-.8,0-1.2l.52,0h1.4l-.07.06-.16,0h-.85c-.12,0-.14,0-.14.15,0,.26,0,.53,0,.8a.7.7,0,0,0,.06.19l-.46.49Z"/><path class="cls-1" d="M10.91,13.32l-.07.06-.06,0H9.9a.19.19,0,0,0-.07.13c0,.32,0,.63,0,.95h0l0,0h0l0,0L9.3,15H9.23L9,14.76s.08-.1.08-.15c0-.43,0-.86,0-1.3Z"/><path class="cls-1" d="M9.5,21.66,10.84,23l-.19,0H9.79l-.16,0H9.49Z"/><path class="cls-1" d="M9.13,13.31c0,.44,0,.87,0,1.3,0,.05,0,.1-.08.15l-.64-.66,0,0h0v-.71l-.33,0Z"/><path class="cls-1" d="M9.5,21.66V23.1H8.74L9,23l0-1.25.33-.34.11.05Z"/><path class="cls-1" d="M16.5,23.1l-.37,0c-.17,0-.35,0-.53,0s-.15,0-.15-.15c0-.35,0-.7,0-1.06L16.6,23l0,.06Z"/><path class="cls-1" d="M14.62,21.82c0,.08.11.16.11.24,0,.34,0,.69,0,1h-.62c.09,0,.1-.1.1-.19s0-.46,0-.69Z"/><path class="cls-1" d="M14.75,13.33c0,.4,0,.8,0,1.2,0,0-.07.07-.11.1l-.38-.39c0-.23,0-.45,0-.68s0-.21-.21-.21l-.58,0h1.11l.09,0Z"/><path class="cls-1" d="M8.9,21.79,9,23l-.21.06H8.28l.17-.05c0-.2,0-.38,0-.56a.58.58,0,0,0-.06-.17Z"/><path class="cls-1" d="M14.21,19.64l-.84-.86s0,0,0,0h1.21l.07,0h-.37v.07A1.93,1.93,0,0,1,14.21,19.64Z"/><path class="cls-1" d="M13.52,13.32l.58,0c.21,0,.21,0,.21.21s0,.45,0,.68l-.87-.89.06,0Z"/><path class="cls-1" d="M14.24,22.22c0,.23,0,.46,0,.69s0,.16-.1.19h-.74Z"/><path class="cls-1" d="M17.9,12.76a.83.83,0,0,1,0,.15V23.63a.83.83,0,0,1,0-.15Z"/><path class="cls-1" d="M8.38,22.32a.58.58,0,0,1,.06.17c0,.18,0,.36,0,.56l-.17.05H7.62Z"/><path class="cls-1" d="M7.59,17.7H6.42v.49h0c0-1.23,0-2.46,0-3.69V12.92a.94.94,0,0,1,0-.16v.52H7.6v0H7.16v.47h0l-.06-.45H6.43v4.3H7.1l0-.46h0v.47H7.6Z"/><path class="cls-1" d="M8,13.31l.33,0v.71l-.74-.75Z"/><path class="cls-1" d="M13.39,17.7H12.18v-.06h.69V14c0-.07,0-.13,0-.19a1.21,1.21,0,0,1,0,.19v3a1,1,0,0,0,0,.17v.47h.43l0,0Z"/><path class="cls-1" d="M17.87,12.79H12.38l-.2,0h5.69Z"/><path class="cls-1" d="M12.87,23.1V18.78h.06v.47a.45.45,0,0,0,0,.11v3.15a.54.54,0,0,0,0,.1v.49Z"/><path class="cls-1" d="M14.64,18.78l-.07,0H13.36v0h3.32s0,0,0,0H15a.86.86,0,0,0-.17,0h-.19Z"/><path class="cls-1" d="M10.9,18.75l.17,0h1v.08h-1.2Z"/><path class="cls-1" d="M17.87,17.71h-1.2v-.06h1.21Z"/><path class="cls-1" d="M16.66,18.75s0,0,0,0h1.2v.08H16.66Z"/><path class="cls-1" d="M10.92,17.65l.51,0h.68v.08H10.94v-.05Z"/><path class="cls-1" d="M7.63,13.27l.13,0H9l.12,0Z"/><path class="cls-1" d="M9.63,23.1l.16,0h.86l.19,0,.07.06Z"/><path class="cls-1" d="M10.94,17.7h1.17v0h-1A.8.8,0,0,1,10.94,17.7Z"/><path class="cls-1" d="M12.9,13.78l0-.46h.07v.47Z"/><path class="cls-1" d="M11.43,18.78h.68v0h-.65Z"/><path class="cls-1" d="M12.11,17.63h-.68l0,0h.65Z"/><path class="cls-1" d="M16.57,23.1l0-.06,0,0Z"/><path class="cls-1" d="M14.72,13.34l-.09,0Z"/><path class="cls-1" d="M13.46,13.31l-.06,0,0,0Z"/><path class="cls-1" d="M12.11,13.35l0,0Z"/><path class="cls-1" d="M12.08,23.1l0,0Z"/><path class="cls-1" d="M14.63,23.1h0Z"/><path class="cls-1" d="M10.87,13.27h0Z"/><path class="cls-1" d="M17.16,17.15a0,0,0,0,1,0,0h0Z"/><path class="cls-1" d="M17.16,19.24a0,0,0,0,0,0,0h0Z"/><path class="cls-1" d="M12.08,18.19l0,0Z"/><path class="cls-1" d="M4.81,8.86l0-.13c.19-.32.37-.64.55-1s.27-.49.4-.74c0,.38,0,.76,0,1.15V23.66h-1V8.86Z"/><path class="cls-1" d="M3.76,10.79l0-.16.54-1c.13-.24.27-.48.41-.72v14.7h-1v0c0-.07,0-.13,0-.2V11C3.77,10.91,3.76,10.85,3.76,10.79Z"/><path class="cls-1" d="M4.75,23.66v0h.06v0Z"/><path class="cls-1" d="M3.76,10.79c0,.06,0,.12,0,.18V23.42c0,.07,0,.13,0,.2H3.7V10.79Z"/><path class="cls-1" d="M5.8,23.62V8.18c0-.39,0-.77,0-1.15V7h.06V23.62Z"/><path class="cls-1" d="M10.05,2.53l2-1.36a.49.49,0,0,1,.06.17c0,.61,0,1.22,0,1.83v0l-1,.26-.07,0-.17,0-.81.19Z"/><path class="cls-1" d="M10.05,2.53v2H10V2.58Z"/><path class="cls-1" d="M12.15,3.17c0-.61,0-1.22,0-1.83a.49.49,0,0,0-.06-.17l.07-.06h0l.05,0a1.16,1.16,0,0,0,0,.18V3.17Z"/><path class="cls-1" d="M12.18,3.17V1.35a1.16,1.16,0,0,1,0-.18l1.84,1.24-.8.46-.06,0-1,.26Z"/><path class="cls-1" d="M13.26,2.87l.8-.46.19.12v2h-1Z"/><path class="cls-1" d="M14.24,4.51v-2l.06,0V4.51Z"/><path class="cls-1" d="M2.65,12.73h.06c0,.44,0,.89,0,1.34v9.34a1.48,1.48,0,0,1,0,.21H2.65V12.73Z"/><path class="cls-1" d="M17.88,12.75H15.42l.74,0h1.29Z"/><path class="cls-1" d="M4.81,23.62H4.75V8.9l.06,0V23.62Z"/><path class="cls-1" d="M8,5H8a2.06,2.06,0,0,0,.26-.12L9,4.45v8.24l0,0H8V5Z"/><path class="cls-1" d="M10,3.76v.75l-.07,0V5a.76.76,0,0,0,0,.16V8.31a.76.76,0,0,0,0,.16v.46L10,9v3.77H9V4.41Z"/><path class="cls-1" d="M9,4.41v8.32H9V4.45Z"/><path class="cls-1" d="M6.84,12.73V5.79h.07v6.94Z"/><path class="cls-1" d="M6.91,12.73v-7L7.6,5.3l.29-.17v7.6Z"/><path class="cls-1" d="M8,5v.1H7.89V4c0,.05.06.09.06.14C8,4.44,8,4.72,8,5Z"/><path class="cls-1" d="M7.89,5.13,7.6,5.3,7.73,5l.16.07h0Z"/><path class="cls-1" d="M15.36,12.75H12.15a0,0,0,0,1,0,0h3.22Z"/><path class="cls-1" d="M14.5,8.93h0V8.5h-1v0h.33v-.4a.38.38,0,0,0,0-.1V5.49a.54.54,0,0,0,0-.1V5h-.34V5l1,0v-.4h0Zm-.59-.49.55.05V5l-.55,0V8.44Z"/><path class="cls-1" d="M14.31,12.73h-.07V9h.07Z"/><path class="cls-1" d="M9.92,4.54l.07,0h4.32l.16,0v0H9.92Z"/><path class="cls-1" d="M14.5,8.93V4.54a1,1,0,0,1,0,.17q0,2,0,4.05A1,1,0,0,1,14.5,8.93Z"/><path class="cls-1" d="M14.31,9H12.15v0h2.33v0Z"/><path class="cls-1" d="M7.1,18.81v.44a1.25,1.25,0,0,1,0,.19c0,1.06,0,2.12,0,3.19l-.05.47H6.45V19c0-.11,0-.15.15-.15S6.93,18.81,7.1,18.81Z"/><path class="cls-1" d="M7.15,22.63c0-1.07,0-2.13,0-3.19a1.25,1.25,0,0,0,0-.19h.06l.1.12a.52.52,0,0,0-.06.16q0,1.42,0,2.85a.74.74,0,0,0,0,.14l-.08.11Z"/><path class="cls-1" d="M7.73,18.75h.55v0h0l-.06.59-.59-.59Z"/><path class="cls-1" d="M7.1,18.81c-.17,0-.34,0-.5,0s-.15,0-.15.15V23.1a.45.45,0,0,1,0-.11v-4.1a.62.62,0,0,1,0-.12Z"/><path class="cls-1" d="M6.91,12.73h5l.15,0H6.42l.42,0Z"/><path class="cls-1" d="M10.8,18.76h.07v0l0,0-.95,0s-.05.08-.05.11q0,.36,0,.72s.07.08.1.12l-.67.7L9,20.16c.11,0,.14,0,.13-.15,0-.34,0-.68,0-1A.19.19,0,0,0,9,18.78h1.66Z"/><path class="cls-1" d="M10.74,19.9v1.78a1.19,1.19,0,0,1-.08.22l-1-1Z"/><path class="cls-1" d="M7.25,22.52a.74.74,0,0,1,0-.14q0-1.43,0-2.85a.52.52,0,0,1,.06-.16l.07.06,0,0h0l0,0h0l0,0h0l0,0h0l0,0h0l0,0h0l0,0h0v0c0,.15,0,.3,0,.45v1c0,.35,0,.69,0,1Z"/><path class="cls-1" d="M7.57,22.2c0-.35,0-.69,0-1v-1c0-.15,0-.3,0-.45h0l.07.07,0,0h0l0,0h0l0,0h0l0,0h0l.12.12,0,0a1.62,1.62,0,0,0,0,.19v1.43a.53.53,0,0,0,0,.17Z"/><path class="cls-1" d="M9,18.78a.19.19,0,0,1,.14.21c0,.34,0,.68,0,1,0,.11,0,.16-.13.15H9l0,0h0l0,0-.46-.46.22.09v-.88l-.16-.06Z"/><path class="cls-1" d="M9.93,19.77s-.1-.08-.1-.12q0-.36,0-.72s0-.11.05-.11l.95,0Z"/><path class="cls-1" d="M7.93,21.83a.53.53,0,0,1,0-.17V20.23a1.62,1.62,0,0,1,0-.19l.36.37c0,.16,0,.32,0,.48v.61h0l0,0h0l0,0h0l0,0h0l0,0h0l0,0h0l0,0h0l0,0Z"/><path class="cls-1" d="M8.51,18.78l.16.06v.88l-.22-.09-.25-.26.06-.59h.25Z"/><path class="cls-1" d="M8.25,21.5v-.61c0-.16,0-.32,0-.48l.53.53Z"/><path class="cls-1" d="M7.91,20l-.12-.12Z"/><path class="cls-1" d="M9.34,21.5l-.11-.05Z"/><path class="cls-1" d="M10.87,18.81v0h0v0Z"/><path class="cls-1" d="M8.91,20.09l0,0Z"/><path class="cls-1" d="M8.94,20.12l0,0Z"/><path class="cls-1" d="M8.22,21.53l0,0Z"/><path class="cls-1" d="M8.19,21.56l0,0Z"/><path class="cls-1" d="M8.15,21.6l0,0Z"/><path class="cls-1" d="M7.53,19.63l0,0Z"/><path class="cls-1" d="M7.56,19.66l0,0Z"/><path class="cls-1" d="M7.59,19.7h0v0Z"/><path class="cls-1" d="M10.9,19.73l0,0Z"/><path class="cls-1" d="M7.69,19.8l0,0Z"/><path class="cls-1" d="M10.87,19.76l0,0Z"/><path class="cls-1" d="M7.72,19.83l0,0Z"/><path class="cls-1" d="M10.84,19.8l0,0Z"/><path class="cls-1" d="M7.75,19.86l0,0Z"/><path class="cls-1" d="M10.8,19.83l0,0Z"/><path class="cls-1" d="M7.79,19.89l0,0Z"/><path class="cls-1" d="M10.77,19.86l0,0Z"/><path class="cls-1" d="M8.12,21.63l0,0Z"/><path class="cls-1" d="M8.09,21.66l0,0Z"/><path class="cls-1" d="M8.06,21.7l0,0Z"/><path class="cls-1" d="M8,21.73l0,0Z"/><path class="cls-1" d="M7.37,19.47l0,0Z"/><path class="cls-1" d="M7.4,19.5l0,0Z"/><path class="cls-1" d="M7.43,19.53l0,0Z"/><path class="cls-1" d="M7.47,19.57l0,0Z"/><path class="cls-1" d="M7.5,19.6l0,0Z"/><path class="cls-1" d="M14.77,18.79h.72c0,.2,0,.38,0,.56s0,.4,0,.6l-.5.53-.38-.4c.11,0,.13-.06.13-.16C14.76,19.54,14.77,19.16,14.77,18.79Z"/><path class="cls-1" d="M13.43,22.09l-.26.26c-.08,0-.11,0-.11-.12,0-.87,0-1.74,0-2.61,0,0,.06-.08.09-.12h0l0,0h0l0,0h0l0,0h0l0,0h0l0,0,.11.11c0,.43,0,.87,0,1.3S13.41,21.76,13.43,22.09Z"/><path class="cls-1" d="M16.4,20v1.63c0,.08,0,.15-.11.15l-.84-.83Z"/><path class="cls-1" d="M13.43,22.09c0-.33,0-.67,0-1s0-.87,0-1.3l.42.44v1.42s0,0,0,0l0,0h0l0,0h0l0,0h0l0,0h0l0,0h0l0,0h0l0,0h0l0,0h0l0,0Z"/><path class="cls-1" d="M15.52,19.94c0-.2,0-.4,0-.6s0-.36,0-.56h-.66a.86.86,0,0,1,.17,0h1.66v0Z"/><path class="cls-1" d="M14.77,18.79c0,.37,0,.75,0,1.12,0,.1,0,.16-.13.16l-.43-.43a1.93,1.93,0,0,0,.06-.79v-.07h.5Z"/><path class="cls-1" d="M13.85,21.64V20.22l.71.69Z"/><path class="cls-1" d="M13.16,19.5s-.09.08-.09.12c0,.87,0,1.74,0,2.61,0,.08,0,.13.11.12l-.24.26a.54.54,0,0,1,0-.1V19.36a.45.45,0,0,1,0-.11Z"/><path class="cls-1" d="M13.29,19.63l0,0Z"/><path class="cls-1" d="M13.32,19.67l0,0Z"/><path class="cls-1" d="M15.45,21.86l0,0Z"/><path class="cls-1" d="M13.62,21.89l0,0Z"/><path class="cls-1" d="M13.59,21.93l0,0Z"/><path class="cls-1" d="M13.56,22l0,0Z"/><path class="cls-1" d="M13.82,21.69l0,0Z"/><path class="cls-1" d="M13.78,21.73l0,0Z"/><path class="cls-1" d="M13.75,21.76l0,0Z"/><path class="cls-1" d="M13.72,21.79l0,0Z"/><path class="cls-1" d="M13.69,21.83l0,0Z"/><path class="cls-1" d="M15.42,21.83l0,0Z"/><path class="cls-1" d="M13.65,21.86l0,0Z"/><path class="cls-1" d="M13.19,19.53l0,0Z"/><path class="cls-1" d="M13.22,19.57l0,0Z"/><path class="cls-1" d="M13.25,19.6l0,0Z"/><path class="cls-1" d="M15,16,15,16h0l.85.89,0,0h0l0,0h0l0,0h0l0,0h0l0,0h0l0,0h0l0,0h0l0,0h0l0,0h0l0,0h0l0,0h0v.13c0,.16,0,.27-.22.27-.4,0-.79,0-1.19,0,0,0,.07,0,.11,0s.19-.05.19-.21a7.36,7.36,0,0,1,0-1A.27.27,0,0,0,15,16Z"/><path class="cls-1" d="M13.12,14l.31.31v2.32l-.34.34a1.22,1.22,0,0,1-.06-.26V14.23A.6.6,0,0,1,13.12,14Z"/><path class="cls-1" d="M13.43,16.64V14.32l.13.14,0,0h0l0,0h0l0,0h0l0,0h0l0,0h0l0,0h0l0,0h0l0,0h0l0,0h0l0,0h0v1.38Z"/><path class="cls-1" d="M15,16a.27.27,0,0,1,.19.32,7.36,7.36,0,0,0,0,1c0,.16,0,.23-.19.21s-.07,0-.11,0h0l-.2,0,0-1.21h0l0,0Z"/><path class="cls-1" d="M15.52,14.49a.7.7,0,0,1-.06-.19c0-.27,0-.54,0-.8,0-.11,0-.16.14-.15h.85l.16,0Z"/><path class="cls-1" d="M14.6,16.39l0,1.21h-.52c0-.14,0-.29,0-.43A1.59,1.59,0,0,0,14,17Z"/><path class="cls-1" d="M13.88,16.17V14.79l.67.68v0Z"/><path class="cls-1" d="M13.12,14a.6.6,0,0,0-.09.22v2.49a1.22,1.22,0,0,0,.06.26l-.16.19a1,1,0,0,1,0-.17V14a1.21,1.21,0,0,0,0-.19v-.06h0Z"/><path class="cls-1" d="M14,17a1.59,1.59,0,0,1,.07.2c0,.14,0,.29,0,.43a.52.52,0,0,1-.17,0c-.18,0-.36,0-.54,0h0l.05,0Z"/><path class="cls-1" d="M14.83,17.64c.4,0,.79,0,1.19,0,.19,0,.23-.11.22-.27v-.13l.42.43v0H14.83v0Z"/><path class="cls-1" d="M14.83,17.64v0H13.39l0,0,0-.05c.18,0,.36,0,.54,0a.52.52,0,0,0,.17,0h.52Z"/><path class="cls-1" d="M15.51,15.44l0,.07-.07-.06h.09Z"/><path class="cls-1" d="M14.54,15.51v0l.09.07h0Z"/><path class="cls-1" d="M15,15h.07v.07h0Z"/><path class="cls-1" d="M15.22,15.25l0,0h0l0,0Z"/><path class="cls-1" d="M14.86,15.8l0,0h0l0,0Z"/><path class="cls-1" d="M13.75,14.66l0,0Z"/><path class="cls-1" d="M13.72,14.62l0,0Z"/><path class="cls-1" d="M13.69,14.59l0,0Z"/><path class="cls-1" d="M13.65,14.56l0,0Z"/><path class="cls-1" d="M13.62,14.52l0,0Z"/><path class="cls-1" d="M13.59,14.49l0,0Z"/><path class="cls-1" d="M13.81,14.72l0,0Z"/><path class="cls-1" d="M13.78,14.69l0,0Z"/><path class="cls-1" d="M16,17l0,0Z"/><path class="cls-1" d="M16,17l0,0Z"/><path class="cls-1" d="M14.77,15.67v0h0Z"/><path class="cls-1" d="M16,17l0,0Z"/><path class="cls-1" d="M16.07,17.05l0,0Z"/><path class="cls-1" d="M16.11,17.08l0,0Z"/><path class="cls-1" d="M16.14,17.11l0,0Z"/><path class="cls-1" d="M16.17,17.14l0,0Z"/><path class="cls-1" d="M16.2,17.18l0,0Z"/><path class="cls-1" d="M14.76,15.68l0,0h0l0,0Z"/><path class="cls-1" d="M16.24,17.21l0,0Z"/><path class="cls-1" d="M14.73,15.64l0,0h0l0,0Z"/><path class="cls-1" d="M14.7,15.61l0,0h0l0,0Z"/><path class="cls-1" d="M13.46,17.57l-.05,0Z"/><path class="cls-1" d="M15,16h0v0h0Z"/><path class="cls-1" d="M15,15.9l0,0h0l0,0Z"/><path class="cls-1" d="M14.93,15.86l0,0h0l0,0Z"/><path class="cls-1" d="M14.63,16.36l0,0Z"/><path class="cls-1" d="M14.9,15.83l0,0h0l0,0Z"/><path class="cls-1" d="M14.89,15.84l0,0h0l0,0Z"/><path class="cls-1" d="M15.91,16.88l0,0Z"/><path class="cls-1" d="M16,16.91l0,0Z"/><path class="cls-1" d="M13.88,14.79l0,0Z"/><path class="cls-1" d="M13.85,14.75l0,0Z"/><path class="cls-1" d="M14.66,15.58l0,0h0l0,0Z"/><path class="cls-1" d="M15.42,15.45l0,0h0l0,0Z"/><path class="cls-1" d="M15.38,15.41l0,0h0l0,0Z"/><path class="cls-1" d="M15.33,15.34l0,0h0l0,0Z"/><path class="cls-1" d="M15.29,15.31l0,0h0l0,0Z"/><path class="cls-1" d="M15.29,15.31l0,0h0l0,0Z"/><path class="cls-1" d="M15.25,15.28l0,0h0l0,0Z"/><path class="cls-1" d="M15.13,15.11v0l0,0Z"/><path class="cls-1" d="M15.09,15.08l0,0h0l0,0Z"/><path class="cls-1" d="M15.06,15.05l0,0h0l0,0Z"/><path class="cls-1" d="M9.75,15.44l.91-.92a1.21,1.21,0,0,1,.11.3c0,.46,0,.91,0,1.37v.36L10.25,16l-.53-.55Z"/><path class="cls-1" d="M9.07,16.16,9.26,16l.7.73c0,.06-.07.12-.07.18,0,.25,0,.5,0,.75l-.15,0H9.07c0-.05.09-.1.09-.15,0-.41,0-.81,0-1.22C9.16,16.23,9.1,16.2,9.07,16.16Z"/><path class="cls-1" d="M9.07,16.16s.09.07.09.11c0,.41,0,.81,0,1.22,0,.05-.06.1-.09.15l-.69,0H7.6l.05,0h.7c0-.17,0-.31,0-.46A.6.6,0,0,0,8.27,17Z"/><path class="cls-1" d="M7.33,14l.24.25c0,.83,0,1.66,0,2.5v0h0l0,0h0l0,0h0l0,0h0l0,0h0l0,0h0l0,0h0l0,0h0l0,0h0s-.09-.08-.09-.12q0-1.42,0-2.85s.06-.07.09-.11h0Z"/><path class="cls-1" d="M7.56,16.72c0-.84,0-1.67,0-2.5l.45.46v0c-.11,0-.1.08-.1.15,0,.49,0,1,0,1.47l-.37.38Z"/><path class="cls-1" d="M8,16.34c0-.49,0-1,0-1.47,0-.07,0-.16.1-.15h0l0,0h0l0,0h0l0,0h0l0,0h0l0,0h0l0,0h0l0,0h0l0,0h0l0,0h0v.92Z"/><path class="cls-1" d="M9.89,17.61c0-.25,0-.5,0-.75,0-.06,0-.12.07-.18l.84.86c0,.1-.06.1-.12.1Z"/><path class="cls-1" d="M8.27,17a.6.6,0,0,1,.08.16c0,.15,0,.29,0,.46H7.66l0,0L8,17.31l0,0H8l0,0H8l0,0h0l0-.05Z"/><path class="cls-1" d="M8.35,15.94V15l.46.46Z"/><path class="cls-1" d="M7.3,13.94s-.09.07-.09.11q0,1.42,0,2.85s.06.08.09.12l-.13.15h0c0-1.13,0-2.26,0-3.39h0Z"/><path class="cls-1" d="M9.89,17.61l.79,0c.06,0,.13,0,.12-.1l.12.11h0l-.06,0H8.38l.69,0h.67Z"/><path class="cls-1" d="M9.75,15.44l0,0-.06-.07Z"/><path class="cls-1" d="M9.23,15H9.3v.07Z"/><path class="cls-1" d="M8,17.26l0,0Z"/><path class="cls-1" d="M8.12,17.14l0,.05Z"/><path class="cls-1" d="M8.06,14.72H8v0Z"/><path class="cls-1" d="M7.33,14l0,0Z"/><path class="cls-1" d="M8.35,14.07l0,0Z"/><path class="cls-1" d="M7.34,17l0,0Z"/><path class="cls-1" d="M7.3,17l0,0Z"/><path class="cls-1" d="M8.07,17.2l0,0Z"/><path class="cls-1" d="M8,17.23l0,0Z"/><path class="cls-1" d="M7.69,17.57l0,0Z"/><path class="cls-1" d="M10.77,16.56l0,0Z"/><path class="cls-1" d="M10.81,16.59l0,0Z"/><path class="cls-1" d="M10.84,16.62l0,0Z"/><path class="cls-1" d="M10.87,16.66l0,0Z"/><path class="cls-1" d="M10.9,16.69l0,0Z"/><path class="cls-1" d="M7.56,16.72h0l0,0Z"/><path class="cls-1" d="M10.94,16.72l0,0Z"/><path class="cls-1" d="M7.53,16.78l0,0Z"/><path class="cls-1" d="M7.5,16.82l0,0Z"/><path class="cls-1" d="M7.47,16.85l0,0Z"/><path class="cls-1" d="M7.43,16.88l0,0Z"/><path class="cls-1" d="M7.4,16.92l0,0Z"/><path class="cls-1" d="M7.37,17l0,0Z"/><path class="cls-1" d="M9.3,15.05l0,0Z"/><path class="cls-1" d="M8.35,15l0,0Z"/><path class="cls-1" d="M8.31,15l0,0Z"/><path class="cls-1" d="M8.28,15l0,0Z"/><path class="cls-1" d="M8.25,14.92l0,0Z"/><path class="cls-1" d="M8.22,14.88l0,0Z"/><path class="cls-1" d="M8.19,14.85l0,0Z"/><path class="cls-1" d="M8.15,14.82l0,0Z"/><path class="cls-1" d="M8.12,14.79l0,0Z"/><path class="cls-1" d="M8.09,14.75l0,0Z"/><path class="cls-1" d="M9.63,15.38l0,0Z"/><path class="cls-1" d="M9.59,15.34l0,0Z"/><path class="cls-1" d="M9.56,15.31l0,0Z"/><path class="cls-1" d="M9.53,15.28l0,0Z"/><path class="cls-1" d="M9.49,15.25l0,0Z"/><path class="cls-1" d="M9.46,15.21l0,0Z"/><path class="cls-1" d="M9.43,15.18l0,0Z"/><path class="cls-1" d="M9.4,15.15l0,0Z"/><path class="cls-1" d="M9.36,15.12l0,0Z"/><path class="cls-1" d="M9.33,15.08l0,0Z"/><path class="cls-1" d="M14.47,8.92H10V8.5h.94l.14,0h2.31l.14,0h1Z"/><path class="cls-1" d="M11.1,12.73H11V9h.07Z"/><path class="cls-1" d="M12.15,9h0v3.77h0C12.15,11.47,12.15,10.21,12.15,9Z"/><path class="cls-1" d="M11.1,9H10l-.07,0h2.16l-.67,0Z"/><path class="cls-1" d="M8.51,18.78H8.28v0H10.8l-.17,0H8.51Z"/><path class="cls-1" d="M13.39,17.67h3.27v0H13.39Z"/><path class="cls-1" d="M8.38,17.66h2.49l.06,0v.05H7.59v-.05Z"/><path class="cls-1" d="M9.82,14.43c0-.32,0-.63,0-.95a.19.19,0,0,1,.07-.13h.88l.06,0Z"/><path class="cls-1" d="M9.76,14.5l0,0Z"/><path class="cls-1" d="M9.79,14.46l0,0Z"/><path class="cls-1" d="M7.15,13.78c0,1.13,0,2.26,0,3.39l0,.46H6.43v-4.3h.66Z"/><path class="cls-1" d="M12.11,4.51h-1v-1l1-.26V4.48Z"/><path class="cls-1" d="M10.05,4.48V3.72l.81-.19.17,0v1Z"/><path class="cls-1" d="M11,4.48v-1l.07,0v1H11Z"/><path class="cls-1" d="M12.14,4.48V3.17h0V4.51h0Z"/><path class="cls-1" d="M11,4.48v0h-1v0Z"/><path class="cls-1" d="M12.18,4.48V3.17l1-.26V4.47Z"/><path class="cls-1" d="M13.2,4.47V2.91l.06,0V4.51h0l0,0Z"/><path class="cls-1" d="M8,12.73H7.89V5.1H8Z"/><path class="cls-1" d="M9,12.73h0l0,0Z"/><path class="cls-1" d="M10,8.93h0V4.54h0V5c0,1.13,0,2.26,0,3.39a.2.2,0,0,0,0,.08h.49l0,0V5a0,0,0,0,0,0,0l.41,0V5h-.38l.05.4a.12.12,0,0,0,0,.08c0,.86,0,1.73,0,2.6v.39h.35a0,0,0,0,1,0,0H10Z"/><path class="cls-1" d="M10,9h.06v3.77H10C10,11.47,10,10.22,10,9Z"/><path class="cls-1" d="M9.92,5V8.47a.76.76,0,0,1,0-.16V5.16A.76.76,0,0,1,9.92,5Z"/><path class="cls-1" d="M9.91,8.54v0Z"/><path class="cls-1" d="M9.91,4.58v0Z"/><path class="cls-1" d="M12.18,12.73V9h1v3.77Z"/><path class="cls-1" d="M13.26,9h1v3.77h-1Z"/><path class="cls-1" d="M13.26,9v3.77h-.07V9Z"/><path class="cls-1" d="M10.9,8.47h-.35V8.08L11,7.57l.22-.24,0,0h0l0,0h0l0,0h0l0,0h0l0,0h0l0,0h0l.42-.39-.42-.4L11.07,6l-.49-.55L10.53,5h.38l.69.7.39.41.22.25.62-.66.68-.7h.34v.39l-.39.43,0,0h0l0,0h0l0,0h0l0,0h0l-.79.81.71.67.6.64v.4H13.5l0,0-.8-.82-.46-.5L12,7.39l-.37.39L11,8.43l0,0Z"/><path class="cls-1" d="M10,5V4.54h4.52v.38l-1,0h-2.6L10.5,5H10Z"/><path class="cls-1" d="M13.92,5.36V5h.38c.11,0,.15,0,.15.15s0,.48,0,.71c0,.79,0,1.58,0,2.37,0,.15,0,.19-.18.18h-.35V8.11A.8.8,0,0,0,14,8V5.51A.8.8,0,0,0,13.92,5.36Z"/><path class="cls-1" d="M13.85,8.07l-.6-.64c.12,0,.11-.1.11-.18l0-1.3h0l0,0h0l0,0h0l0,0h0l0,0,.39-.43a.54.54,0,0,1,0,.1V8A.38.38,0,0,1,13.85,8.07Z"/><path class="cls-1" d="M12,5h1.53V5l-.68.7s-.09,0-.09-.08c0-.2,0-.41,0-.62H12Z"/><path class="cls-1" d="M13.91,8.44h.35c.14,0,.18,0,.18-.18,0-.79,0-1.58,0-2.37,0-.23,0-.47,0-.71s0-.16-.15-.15h-.38l.55,0V8.49Z"/><path class="cls-1" d="M13.92,5.36a.8.8,0,0,1,0,.15V8a.8.8,0,0,1,0,.15Z"/><path class="cls-1" d="M10.9,8.47h2.62v0h-2.6A0,0,0,0,0,10.9,8.47Z"/><path class="cls-1" d="M12.18,4.48h1v0h-1Z"/><path class="cls-1" d="M12.14,4.48v0h0Z"/><path class="cls-1" d="M13.19,4.51v0l0,0h0Z"/><path class="cls-1" d="M10.05,12.73V9h1v3.77Z"/><path class="cls-1" d="M10.9,8.5h2.59l-.14,0H11Z"/><path class="cls-1" d="M10.51,5v.33a.7.7,0,0,0,0,.14V7.94a.61.61,0,0,0,0,.13v.37l0,0H10V7.33c0-.71,0-1.42,0-2.14,0-.13,0-.17.17-.16Z"/><path class="cls-1" d="M10.58,5.4l.49.55A1.17,1.17,0,0,0,11,6.2c0,.46,0,.91,0,1.37l-.49.51c0-.87,0-1.74,0-2.6A.12.12,0,0,1,10.58,5.4Z"/><path class="cls-1" d="M12,5V5h-.33a1.12,1.12,0,0,1,0,.68l0,0L10.91,5V5Z"/><path class="cls-1" d="M10.51,5h-.36c-.13,0-.17,0-.17.16,0,.72,0,1.43,0,2.14V8.47a.2.2,0,0,1,0-.08C10,7.26,10,6.13,10,5h.54A0,0,0,0,1,10.51,5Z"/><path class="cls-1" d="M10.51,8.07a.61.61,0,0,1,0-.13V5.5a.7.7,0,0,1,0-.14Z"/><path class="cls-1" d="M10.48,8.47l0,0Z"/><path class="cls-1" d="M13.5,8.47H12c0-.06.09-.11.09-.16,0-.25,0-.51,0-.76,0,0-.06-.1-.09-.16l.26-.28.46.5c0,.23,0,.46,0,.7s0,.13.13.13h.67Z"/><path class="cls-1" d="M12,5h.72c0,.21,0,.42,0,.62,0,0,.06,0,.09.08l-.62.66L12,6.11c0-.05.09-.1.09-.15,0-.27,0-.54,0-.8A.44.44,0,0,0,12,5Z"/><path class="cls-1" d="M13.33,6l0,1.3c0,.08,0,.17-.11.18l-.71-.67Z"/><path class="cls-1" d="M11,7.57c0-.46,0-.91,0-1.37A1.17,1.17,0,0,1,11.07,6l.39.39v.79h0l0,0h0l0,0h0l0,0h0l0,0h0l0,0h0l0,0Z"/><path class="cls-1" d="M12,7.39c0,.06.09.11.09.16,0,.25,0,.51,0,.76,0,0-.06.1-.09.16h-1l0,0h.71c0-.18,0-.35,0-.52s-.05-.09-.07-.13Z"/><path class="cls-1" d="M12,5a.44.44,0,0,1,.06.16c0,.26,0,.53,0,.8,0,0-.06.1-.09.15L11.6,5.7l0,0a1.12,1.12,0,0,0,0-.68H12Z"/><path class="cls-1" d="M13.47,8.43H12.8c-.1,0-.13,0-.13-.13s0-.47,0-.7Z"/><path class="cls-1" d="M11.58,7.78s.07.09.07.13,0,.34,0,.52H11Z"/><path class="cls-1" d="M11.46,7.13V6.34l.42.4Z"/><path class="cls-1" d="M11.43,7.16l0,0Z"/><path class="cls-1" d="M11.39,7.19l0,0Z"/><path class="cls-1" d="M11.36,7.23l0,0Z"/><path class="cls-1" d="M11.33,7.26l0,0Z"/><path class="cls-1" d="M11.3,7.29l0,0Z"/><path class="cls-1" d="M11.26,7.33l0,0Z"/><path class="cls-1" d="M13.46,5.82l0,0Z"/><path class="cls-1" d="M13.42,5.85l0,0Z"/><path class="cls-1" d="M13.39,5.89l0,0Z"/><path class="cls-1" d="M13.36,5.92l0,0Z"/><path class="cls-1" d="M10,5h0Z"/></g></g></svg>