<svg xmlns="http://www.w3.org/2000/svg" viewBox="0 0 16.79 21.61"><defs><style>.cls-1{fill:#260d0b;}.cls-2{fill:#45211b;}</style></defs><title>insurance_1</title><g id="Layer_2" data-name="Layer 2"><g id="Layer_1-2" data-name="Layer 1"><path class="cls-1" d="M0,10.8V2.28C0,.59.59,0,2.28,0H14.59c1.57,0,2.19.62,2.19,2.2q0,8.59,0,17.21c0,1.58-.62,2.19-2.19,2.19H2.19C.63,21.6,0,21,0,19.41Zm15.62,0V2.31c0-1.06-.08-1.13-1.16-1.13-4.08,0-8.15,0-12.22,0-.81,0-1.09.27-1.08,1.07,0,5.7,0,11.4,0,17.11,0,1,.09,1.09,1.12,1.09H14.5c1,0,1.12-.09,1.12-1.1Z"/><path class="cls-1" d="M15.63,10.82c0,2.84,0,5.67,0,8.51,0,1-.09,1.1-1.11,1.1H2.3c-1,0-1.11-.09-1.12-1.09,0-5.71,0-11.41,0-17.11,0-.8.27-1.08,1.09-1.07,4.07,0,8.14,0,12.21,0,1.09,0,1.16.07,1.16,1.13ZM2.48,13.23h7V12.17h-7Zm7.08,3.62-.05-1.09h-7v1.09ZM9.51,8.51h-7V9.58h7Zm-7-3.6V6h7V4.91Zm11.88,10.2-.91-.71-1.32,1.54-.6-.56-.89.72,1.54,1.63ZM13.49,3.52,12.16,5.05l-.7-.59-.78.78L12.2,6.86l2.16-2.6Zm-2.81,9,1.52,1.63,2.16-2.6-.88-.73-1.33,1.54-.64-.6Zm1.52-2,2.17-2.61-.9-.71L12.15,8.69l-.64-.6-.83.78Z"/><path class="cls-2" d="M2.46,13.23V12.17h7v1.06Z"/><path class="cls-2" d="M9.55,16.85H2.46V15.76h7Z"/><path class="cls-2" d="M9.49,8.51V9.58h-7V8.51Z"/><path class="cls-2" d="M2.48,4.91h7V6h-7Z"/><path class="cls-2" d="M14.36,15.11l-2.18,2.62L10.65,16.1l.88-.72.61.56,1.31-1.54Z"/><path class="cls-2" d="M13.47,3.52l.88.74-2.16,2.6L10.66,5.24l.78-.78.7.59Z"/><path class="cls-2" d="M10.67,12.48l.82-.76.64.6,1.34-1.54.88.73-2.17,2.6Z"/><path class="cls-2" d="M12.18,10.48,10.67,8.87l.82-.78.65.6,1.32-1.53.89.71Z"/></g></g></svg>