<svg xmlns="http://www.w3.org/2000/svg" viewBox="0 0 183.74 83.78"><defs><style>.cls-1{fill:#fff;}.cls-2{fill:none;}</style></defs><title>logo_1</title><g id="Layer_2" data-name="Layer 2"><g id="Layer_1-2" data-name="Layer 1"><path class="cls-1" d="M26.71,63.81c-.22-2.63-.44-5.26-.66-8l-3,5.81-.24-.08C23,60,22.56,58.5,23.28,57q3.18-6.83,6.14-13.75a33,33,0,0,0,2.48-8.33,9.36,9.36,0,0,0-1-6.49c-.29-.47-.07-.64.41-.68a3.75,3.75,0,0,1,4.14,3.81,16.66,16.66,0,0,1-1.31,6c-1.85,5.21-4.22,10.2-6.56,15.2A7.44,7.44,0,0,0,27,55.44a33.39,33.39,0,0,0,.09,4A11.71,11.71,0,0,1,26.71,63.81Z"/><path class="cls-1" d="M85.56,56.13h-3a4.87,4.87,0,0,0,.23-1.31c-.46-3.59-1-7.18-1.46-10.77a3.21,3.21,0,0,0-.16-.45l-5.5,12.73C73.78,52,72,47.9,70.15,43.77H70c-.16,1.17-.33,2.33-.48,3.49-.33,2.41-.67,4.82-1,7.23-.07.56-.39,1.27.71,1.62H66.89c.74-.12.83-.69.91-1.3q.83-6,1.66-12c.13-1-.31-1.59-1.43-2.15.84,0,1.68,0,2.52,0,.18,0,.4.34.5.57,1.64,3.73,3.25,7.47,4.87,11.21.09.21.2.42.35.75.88-2,1.71-3.95,2.53-5.87s1.77-4.06,2.63-6.1c.18-.43.38-.65.88-.6s1.15,0,1.79.06c-1.41.36-1.22,1.38-1.08,2.38q.81,5.77,1.61,11.54C84.72,55.29,84.79,55.92,85.56,56.13Z"/><path class="cls-1" d="M99,56.14H95.31c.85-.19.94-.8.94-1.53,0-4.1,0-8.2,0-12.3,0-.71,0-1.42-.95-1.57H99c-.92.18-1,.86-1,1.58,0,1.86,0,3.72,0,5.63h8.43a2.92,2.92,0,0,0,.06-.44q0-2.68,0-5.37c0-.65-.07-1.27-.94-1.38h3.7c-.83.07-.92.66-.92,1.34q0,6.33,0,12.66c0,.68.12,1.24.93,1.37H105.6a1,1,0,0,0,.92-1.08c0-2.16,0-4.33,0-6.54H98.05V50c0,1.62,0,3.24,0,4.86A1.11,1.11,0,0,0,99,56.14Z"/><path class="cls-1" d="M40.62,20.81a50.44,50.44,0,0,1-2.54,10.24c.4-2.68.79-5.2,1.15-7.72A31.12,31.12,0,0,0,38.15,9.05c-.16-.47-.35-.92-.48-1.39a16.33,16.33,0,0,1,2.45,5.64,4.06,4.06,0,0,1,.17.91c0,2.47,1.19,4.57,2.13,6.75a51.45,51.45,0,0,1,3.83,11.81A36.12,36.12,0,0,1,45.66,47a13.46,13.46,0,0,1-.44,1.59C46.54,38.89,45.51,29.55,40.62,20.81Z"/><path class="cls-1" d="M26.54,64.35a3.24,3.24,0,0,1-1.49,2.88,7.47,7.47,0,0,0-1.77,1.82,2,2,0,0,1-1.79,1l-3.78-.24A2.1,2.1,0,0,1,16,68.66a2.26,2.26,0,0,0-.6-.78,3,3,0,0,1-1.31-2.27c-.1-.58-.32-1.14-.44-1.73a1.94,1.94,0,0,1,0-1c1-2.54.85-5.2,1-7.84A20.16,20.16,0,0,0,14,48.34a7.5,7.5,0,0,0-1-2.32,12.86,12.86,0,0,1-2.55-7.59,1.2,1.2,0,0,0-.3-.58A19.65,19.65,0,0,1,8,35.14a3.58,3.58,0,0,1-.2-2.25,12.59,12.59,0,0,1,1-2.94,11.19,11.19,0,0,1,1.23-1.71l.17.09a17.89,17.89,0,0,1-.65,2.94A4.9,4.9,0,0,0,10,35.44c.79,1.67,1.37,3.44,2,5.18a53.36,53.36,0,0,1,2.69,9.18c.3,1.78.66,3.56.81,5.35a12.65,12.65,0,0,1-.29,3.11c-.3,1.8-1,3.51-.94,5.39a7,7,0,0,0,2.36,4.95,3.78,3.78,0,0,0,2,.7c.8.12,1.63,0,2.43,0a2.54,2.54,0,0,0,2.28-1c.49-.54,1.11-1,1.61-1.49a12.09,12.09,0,0,0,1.2-1.55A4.65,4.65,0,0,0,26.54,64.35Z"/><path class="cls-1" d="M43.72,57.08c-.5,6.08-2.65,11.31-7.78,15-2.45,1.74-5,3.37-7.49,5-2.79,1.82-5.52,3.7-7.21,6.74a9.44,9.44,0,0,1,.32-.94,11.83,11.83,0,0,1,3.59-4.57c2.84-2.22,5.72-4.38,8.54-6.62a28.33,28.33,0,0,0,8.23-9.86c.6-1.26,1-2.61,1.54-3.91C43.56,57.62,43.63,57.35,43.72,57.08Z"/><path class="cls-1" d="M0,33.21a9.09,9.09,0,0,1,2.67-4.35c2-1.73,4.11-3.38,6.23-5a50.18,50.18,0,0,0,8.27-7.34,24.9,24.9,0,0,0,5-9.3c0-.08.07-.16.27-.21-.2,1.09-.36,2.18-.6,3.25a18.46,18.46,0,0,1-8,11.76q-3.27,2.18-6.57,4.33C4.47,28.2,1.63,30.05,0,33.21Z"/><path class="cls-1" d="M55.58,45.37h1.93a4.21,4.21,0,0,0-.32,1.05c0,2.86,0,5.73,0,8.59a3.9,3.9,0,0,0,.34,1.12H55.91v-1.5c-.24.19-.4.3-.54.43a4.73,4.73,0,0,1-4.21,1.08A3,3,0,0,1,48.72,53c0-2.17,0-4.34,0-6.51a5.12,5.12,0,0,0-.26-1.06h1.88a4,4,0,0,0-.31,1c0,2-.07,3.91,0,5.86a4.3,4.3,0,0,0,.64,2.28c1.3,1.74,3.87,1.18,5.13-.43a1,1,0,0,0,.09-.54c0-2.36,0-4.73,0-7.09A5.29,5.29,0,0,0,55.58,45.37Z"/><path class="cls-1" d="M128.09,50.66c.82,1.17,1.58,2.29,2.37,3.39.94,1.31,2,2.27,3.93,1.3a3,3,0,0,1-4.24.14A20.11,20.11,0,0,1,127.62,52c-.63-1.13-1.47-1.12-2.55-1,0,1.44,0,2.87,0,4.29,0,.27.31.54.46.78h-2.17a4.22,4.22,0,0,0,.38-1.17q0-4.22,0-8.44a4,4,0,0,0-.27-1.06c1.44,0,3.1-.08,4.74,0a1.86,1.86,0,0,1,1.67,1.56A3,3,0,0,1,129,50C128.71,50.2,128.43,50.39,128.09,50.66Zm-3-4.94v5c1.31,0,2.62.2,3.39-1.06a2.64,2.64,0,0,0-.16-2.91C127.55,45.54,126.35,45.66,125.06,45.72Z"/><path class="cls-1" d="M116,56.33a5,5,0,0,1-5-6.64,5.84,5.84,0,0,1,6.28-4.52c3.25.16,5.29,3,4.59,6.35A5.8,5.8,0,0,1,116,56.33Zm.77-.59a4.49,4.49,0,0,0,4.51-4.62,5.77,5.77,0,0,0-4.74-5.27A4.22,4.22,0,0,0,111.6,50C111.59,53,114.05,55.73,116.73,55.74Z"/><path class="cls-1" d="M148.93,46.68c-.22-1-1-1-1.73-1-1,0-1.95,0-3,0v4.67h4.09V51h-4.1c0,1.28,0,2.64,0,4a.78.78,0,0,0,.86.78c1.12,0,2.24,0,3.36,0,.6,0,.72-.16,1.06-1.11v1.49h-7.05a3.38,3.38,0,0,0,.42-1.08c0-2.81,0-5.63,0-8.44a6,6,0,0,0-.29-1.22h6.32Z"/><path class="cls-1" d="M65.93,46.66c-.19-1-.93-.94-1.67-.93-1,0-2,0-3,0v4.69h4.08V51H61.25c0,1.29,0,2.66,0,4a.77.77,0,0,0,.88.75c1.1,0,2.2.06,3.28,0,.4,0,.77-.43,1.12-.64v1h-7a3.32,3.32,0,0,0,.37-1.1c0-2.83,0-5.67,0-8.5a5,5,0,0,0-.29-1.12h6.33Z"/><path class="cls-1" d="M34.08,45.17l1.78,4.41c.69,1.75,1.37,3.5,2.1,5.23a8.19,8.19,0,0,0,.82,1.32h-2a3.22,3.22,0,0,0-.06-.83c-.46-1.2-1-2.39-1.41-3.59a.65.65,0,0,0-.74-.49c-.86,0-1.9-.25-2.52.15s-.72,1.43-1,2.19c-.25.59-.5,1.19-.7,1.8a3.13,3.13,0,0,0-.06.78H29.18A7.39,7.39,0,0,0,30,54.89c1.22-3,2.41-6,3.6-9,.1-.24.21-.47.32-.71Zm.9,5.7-1.44-3.6-1.43,3.6Z"/><path class="cls-1" d="M86.1,45.38h2a3.16,3.16,0,0,0,.2.83c.66,1.14,1.36,2.25,2,3.37.75-.59,2.67-3.69,2.58-4.18H94a12.89,12.89,0,0,0-.85,1c-.83,1.22-2,2.37-2.36,3.72s-.11,2.93-.12,4.41a2.27,2.27,0,0,0,0,.64c.12.34.3.66.44,1h-2.3c.67-.2.57-.76.56-1.27a16.92,16.92,0,0,0-.11-4.34,15.37,15.37,0,0,0-2.15-3.69C86.82,46.34,86.46,45.88,86.1,45.38Z"/><path class="cls-1" d="M163.63,53.83v2.3h-7.06a3.13,3.13,0,0,0,.38-1c0-2.91,0-5.82,0-8.73a3.56,3.56,0,0,0-.33-1h1.94a5.37,5.37,0,0,0-.29,1.26c0,2.38,0,4.77,0,7.15,0,1.46.39,1.88,1.83,2,.54,0,1.09,0,1.64,0,1.17-.07,1.48-.36,1.71-1.5,0-.16.08-.31.12-.46Z"/><path class="cls-1" d="M171.79,56.14h-7.07a3.79,3.79,0,0,0,.39-1.13q0-4.23,0-8.44a4.79,4.79,0,0,0-.31-1.18h1.94a3.35,3.35,0,0,0-.31,1c0,2.57,0,5.14,0,7.72,0,1.13.47,1.62,1.58,1.68a16.49,16.49,0,0,0,1.86,0c1.2-.07,1.53-.39,1.74-1.56a.85.85,0,0,1,.2-.43Z"/><path class="cls-1" d="M39.82,45.39h2a3.56,3.56,0,0,0-.34,1q0,3.8,0,7.59c0,1.25.49,1.69,1.76,1.75.55,0,1.1,0,1.64,0,1.25-.08,1.52-.33,1.8-1.52,0-.15.08-.3.18-.66v2.57H39.74a3.25,3.25,0,0,0,.39-1c0-2.94,0-5.87,0-8.8A3.41,3.41,0,0,0,39.82,45.39Z"/><path class="cls-1" d="M140.42,47a3.07,3.07,0,0,0-.43-.67,2.72,2.72,0,0,0-2.85-.6,2,2,0,0,0-1.43,1.85A1.7,1.7,0,0,0,137,49.41c.79.32,1.62.55,2.41.9a3,3,0,0,1,.84,5.1,3.2,3.2,0,0,1-1.74.68c-1.2.11-2.42,0-3.67,0v-3c.49,2.3,1.41,2.94,3.75,2.63a2.47,2.47,0,0,0,.75-.21,2.08,2.08,0,0,0,1.33-1.8,1.77,1.77,0,0,0-1.11-1.83c-.92-.44-1.9-.76-2.83-1.17a2.66,2.66,0,0,1-1.62-2.5,2.88,2.88,0,0,1,2.84-3,7,7,0,0,1,1.21.07c1.18.18,1.28.3,1.45,1.57Z"/><path class="cls-1" d="M183.74,54.56a2,2,0,0,1-1.7,1.49,15,15,0,0,1-4.91.14,5.23,5.23,0,0,1-4-7.14c1.19-3.21,4.64-4.69,8.22-3.51,1,.33,1,.33,1.2,1.5l-.59-.47a5.13,5.13,0,0,0-7.51,1.23c-1,1.68-.61,3.37.12,5a5.83,5.83,0,0,0,8.81,2.08Z"/><path class="cls-1" d="M9.56,17.86a2.74,2.74,0,0,1-1,0,3.94,3.94,0,0,1-2.61-4A6.59,6.59,0,0,0,4.54,9.82a8,8,0,0,1-.88-1.53c-.2-.49.12-.81.58-.62A23.14,23.14,0,0,1,7,9.05c.17.11.17.52.28.87L5.34,9c0,.16-.06.19,0,.2A10.25,10.25,0,0,1,7,14.32a3.88,3.88,0,0,0,2.53,3.26Z"/><path class="cls-1" d="M25.26,19.74c-1.93-1.14-2.35-2.37-1.53-4.18.26-.56.66-1.06.88-1.63a6.24,6.24,0,0,0,.48-2c0-1.23-.09-2.47-.11-3.7a3,3,0,0,1,.22-.86,3.46,3.46,0,0,1,.81.34C28.29,9.51,28.88,12,28.9,14.9A23.59,23.59,0,0,0,28,11.82a27.32,27.32,0,0,0-1.72-3.2c-.12-.2-.45-.28-.68-.42a3.16,3.16,0,0,0-.18.72c0,1.35.05,2.7,0,4.05a2.11,2.11,0,0,1-.21.81,25.55,25.55,0,0,0-1.22,2.73,2.65,2.65,0,0,0,.2,1.55A12.28,12.28,0,0,0,25.26,19.74Z"/><path class="cls-1" d="M39.91,7A36.19,36.19,0,0,0,37,3.4C34.71,1.18,32.08.25,29,2A4,4,0,0,1,34.12.37,10.57,10.57,0,0,1,39,5.11,19.76,19.76,0,0,1,39.91,7Z"/><path class="cls-1" d="M23.33,65.67a3.6,3.6,0,0,0-3.24-2.39l2-3.67Z"/><path class="cls-2" d="M125.06,45.72c1.29-.06,2.49-.18,3.23,1a2.64,2.64,0,0,1,.16,2.91c-.77,1.26-2.08,1-3.39,1.06v-5Z"/><path class="cls-2" d="M116.73,55.74c-2.68,0-5.14-2.77-5.13-5.76a4.22,4.22,0,0,1,4.9-4.13,5.77,5.77,0,0,1,4.74,5.27A4.49,4.49,0,0,1,116.73,55.74Z"/><path class="cls-2" d="M35,50.87H32.11l1.43-3.6Z"/></g></g></svg>