<svg xmlns="http://www.w3.org/2000/svg" viewBox="0 0 54.64 54.75"><defs><style>.cls-1{fill:#ce8e00;}.cls-2{fill:#8c8c8d;}.cls-3{fill:#260d0b;}</style></defs><title>spur</title><g id="Layer_2" data-name="Layer 2"><g id="Layer_1-2" data-name="Layer 1"><path class="cls-1" d="M23.12.42a2.42,2.42,0,0,0-.58,1.42c-.25,2.52-.42,5.05-.62,7.58-1.1,1.12-1.93.48-2.59-.48-1.14-1.65-2.16-3.39-3.31-5-.32-.45-1.16-1.05-1.38-.92a6,6,0,0,0-1.4,1.58l.2.81L14,7.14A39.13,39.13,0,0,1,15.24,11a2.69,2.69,0,0,1-.37,2.05c-.26.29-1.38.12-1.9-.19-1.55-.91-3-2-4.47-3s-2.58-.83-2.87.57a2.93,2.93,0,0,0,.77,2c1.36,1.66,2.83,3.21,4.27,4.81.07,2.13-.58,2.49-2.62,1.92-1.66-.47-3.44-.48-5.13-.87-1-.22-1.59-.06-1.92.93a1.45,1.45,0,0,0,1,2l4.41,2c2.22,1,2.45,1.52,1.54,3.66H7.81l0,.12-.85.15c-1.9.34-3.81.64-5.7,1.06-.48.11-1.22.62-1.22.94a6,6,0,0,0,.69,2l7.41.19c1.44,1.52,1.37,2.23-.29,3.51-.92.71-1.8,1.45-2.7,2.17l-.29.11-.55.38-.63.37c-.81.52-1.54,1-.94,2.21s1.43.72,2.21.4c1.63-.64,3.25-1.3,4.84-2a2,2,0,0,1,2.71.57,12.09,12.09,0,0,1-.69,2.74c-.83,1.6-1.87,3.09-2.83,4.63a1.49,1.49,0,0,0,.54,2.25c.87.64,1.3,0,1.83-.55,1.53-1.5,3.1-3,4.61-4.47.81-.82,1.58-.51,1.82.29A9,9,0,0,1,18,47.23c-.14,1.65-.61,3.27-.71,4.92,0,.46.63,1.2,1.13,1.39a1.64,1.64,0,0,0,1.47-.67c1-2.23,1.8-4.53,2.68-6.81l.3-.29c1.47-.68,2.28-.25,2.74,1.61.52,2.08.92,4.19,1.41,6.29a1.26,1.26,0,0,0,1.8,1,2,2,0,0,0,1.05-1.41c.16-1.55,0-3.13.17-4.69a33.7,33.7,0,0,1,.78-3.8l.43-.47h.25l.46.32h0c1.52,2.16,3.05,4.32,4.56,6.49.53.76,1.09,1.23,2.07.77a1.4,1.4,0,0,0,.68-2.16l-1.84-4.53a3.85,3.85,0,0,1-.4-3.83l.26-.3a9.33,9.33,0,0,1,2,.73c1.86,1.18,3.66,2.44,5.47,3.69a1.37,1.37,0,0,0,2.07-.29c.27-.41.07-1.15.08-1.74L45.8,42.22l-.36-.31-.82-.86,0,0L43.16,39.5l-1.53-3.21a.37.37,0,0,0,.19-.09h1.12l-.63-.73.12-.35,0,0,1,.24c0,.23-.14.55,0,.66.69.71,4.17,1,5,.39l1,.19c2.13.45,2.69-.08,2.48-2.33-.14-.29-.21-.74-.43-.84-2.39-1-4.8-2-7.2-3,0-.69-.1-1.37-.16-2.06a14,14,0,0,0,2,0c1.84-.25,4.56-2.29,6.64-2.63-.67-.26-2,1.31-2.34,1.16l1.14-.25c1.46-.3,1.77-.94,1.14-2.38l-.54-.44L51,23.71a.25.25,0,0,0-.27-.07,3.33,3.33,0,0,0-1-.37c-1.51-.05-3,0-4.53-.08-.58,0-1.49-.29-1.61-.65a2.7,2.7,0,0,1,.3-2A7.69,7.69,0,0,1,45.58,19c1.32-.82,2.64-1.66,4-2.47.72-.44,1.08-1,.67-1.82a1.4,1.4,0,0,0-1.9-.88c-2.23.84-4.44,1.73-6.68,2.52a4.28,4.28,0,0,1-1.47,0,2.49,2.49,0,0,1,.17-3.28c1.11-1.43,2-3,3.08-4.48.52-.76,1.07-1.51.18-2.33s-1.72-.35-2.44.34c-1.38,1.33-2.71,2.7-4.11,4-.73.67-1.7,1.42-2.56.54a3.27,3.27,0,0,1-.67-2.46,56,56,0,0,1,1.34-5.51c.2-.79.42-1.63-.6-2a1.46,1.46,0,0,0-2.1,1c-.91,2-1.75,4-2.76,5.88a2.14,2.14,0,0,1-1.56,1.06c-.49,0-1-.76-1.36-1.29a4.34,4.34,0,0,1-.43-1.55C26,4.61,25.77,3,25.47,1.34A1.38,1.38,0,0,0,23.12.42"/><path class="cls-1" d="M13.9,27l0-.12h.12c1.56-.47,1.79-1,1-2.28-.38-.6-.74-1.21-1.11-1.82l1.2-2.34c1.72.12,2.22-1.25,2.92-2.38,1.9.51,2.72-.08,2.37-1.7l.8-.14.25-1.3c1.71.36,1.87-1.29,2.67-2.1.49-.5.66-.93-.26-1.27-.45-.17-.76-.73-1.25-1.23l1.41-.37c-.05-.35-.09-.59-.12-.83l1.25,1.73,1.14.44-.51.22.12.19.38-.41,2.36-1.18H29c.48.54,1,1.07,1.36,1.5-.76,1.52-1.71,1.63-3,.72l.09,1.41c-2,.59-2.87,1.79-2.9,4.09l1-1.17,1,3.17a5.78,5.78,0,0,1,.63-.31,3,3,0,0,1,.49-.1v1.73c1.05-.9.43-2.48,2.6-2.76a7.83,7.83,0,0,1,3.48.36c.16.66.29,1.14.39,1.63.28,1.38,1.7,1.34,2.55,2a4.54,4.54,0,0,0,1.8.41c0,1.08-.35,2.21.29,3.24l-.6.61c-.61-.56-1.2-1.14-1.84-1.67s-1.12-.87-1.68-1.3c-2.89-1.42-4.78-.86-5.92,1.87a10.46,10.46,0,0,0-.38,2.27l-1.06-.31c-.22-1.91,1-3.15,2.12-4.41l4-1-.57-.82c-.21-.57-.43-1.14-.75-2L30.73,21c-1.31.05-2.1.92-3.06,1.68C26.15,23.86,25.11,27.38,26,29c.47.83.8,1.74,1.19,2.61l-.89,2,2.36-1.07,1.14,1,2.12-1,4.33-.9-.8-1,1.46-1h.6l1.12.78-1.24.2.64.32-1.13,1.64-1.46.6a6.76,6.76,0,0,0-1.09.7A8.82,8.82,0,0,0,33.48,35l-.22-1.46-1.45.92c-.93-2.09-1.54.34-2.37.27l-.91-1.11-2.84,1.25,3.57,1.06c.36.94.84,2.22,1.4,3.72l-.38,1.46-2.17.41L28.22,40l-2.5-.44L28,38.31c-3,.06-3,.06-3.29-.93L26,36.91c-2.33-1.15-2.68-2-1.4-3.07.16.3.33.59.53,1l.72-1.23a4.08,4.08,0,0,0-4.5-.91l1.6.94c-.63.81-1,1.65-1.62,2a7.34,7.34,0,0,1-2.44.41c-1.45-.1-1.94-1-2.23-2.33A14.19,14.19,0,0,0,15.52,31a3.71,3.71,0,0,1-.45-1.08c-.06-.83,0-1.66,0-2.23L14,27.45ZM29.37,37.36c-.23-.17-.39-.36-.49-.34s-.27.24-.4.37c.12.11.24.32.36.32S29.12,37.53,29.37,37.36Zm-3-24.89.22.1.24-.48a.89.89,0,0,0-.22-.1C26.48,12.14,26.41,12.31,26.33,12.47Z"/><path class="cls-1" d="M17.79,9.1l.13.83-1.41.37c.49.5.8,1.06,1.25,1.23.92.34.75.77.26,1.27-.8.81-1,2.46-2.68,2.1l-.24,1.3-.8.14c.35,1.62-.47,2.21-2.37,1.7,0-.95-.1-1.73-1.26-.76-1.44-1.6-2.91-3.15-4.27-4.81a2.93,2.93,0,0,1-.77-2c.29-1.4,1.5-1.55,2.87-.57s2.92,2.1,4.47,3c.52.31,1.64.48,1.9.19A2.69,2.69,0,0,0,15.24,11,39.13,39.13,0,0,0,14,7.14l-.57-1.76c-.07-.27-.13-.54-.2-.81.89-.14,1.59,0,1.63,1.1L14.66,6l.11.08.11-.38.88.28v.6L15,6.92l.75.51.95,1.48Z"/><path class="cls-1" d="M22.57,46.06c-.88,2.28-1.7,4.58-2.68,6.81a1.64,1.64,0,0,1-1.47.67c-.5-.19-1.16-.93-1.13-1.39.1-1.65.57-3.27.71-4.92a9,9,0,0,0-.26-3.35c-.24-.8-1-1.11-1.82-.29-1.51,1.52-3.08,3-4.61,4.47-.53.52-1,1.19-1.83.55a1.49,1.49,0,0,1-.54-2.25c1-1.54,2-3,2.83-4.63A12.09,12.09,0,0,0,12.46,39l.06-.93c.36.16.93.23,1.05.5a18.85,18.85,0,0,1,.75,2.49l1,.11c-.07.25-.14.7-.23.71-1.13.07-1.19,1.16-1.73,1.77l-.29,0-.45.36.44.24c0,.17,0,.35-.05.52l-.81.35-.84.63.22.45.36-.48a.79.79,0,0,0,.22,0l1-.81,1.36-1.26h0l.31-.3h0l.3-.29h0l.37-.3,2-.3h0l1.74.91c0,.49.06,1,.06,1.47s0,1.16,0,1.74c0,.22,0,.44,0,.66v.5l-.6,1.5-.48,1.41,1.1-.24v.3a5.88,5.88,0,0,0-.44.77s.27.2.41.3l.35-.67L20.72,49c.54-1,1.09-2.1,1.64-3.15Z"/><path class="cls-1" d="M7.86,27.45l1.06.24c0,.57-.05,1.4,0,2.23A3.67,3.67,0,0,0,9.38,31a13.62,13.62,0,0,1,1.19,2.69c.29,1.31.77,2.23,2.23,2.33v.28c-.64.1-1.28.19-1.91.35-.09,0-.09.37-.13.57l-.62.55c-1.38-1.31-2.26-1-2.92.91l-1.73,1,.15-.51L4.27,37.47l.55-.38.17.16L5.11,37c.9-.72,1.78-1.46,2.7-2.17,1.66-1.28,1.73-2,.29-3.51-.33-.2-.64-.53-1-.57-2-.19-4.05.53-5.82-1L.69,31.11a6,6,0,0,1-.69-2c0-.32.74-.83,1.22-.94,1.89-.42,3.8-.72,5.7-1.06Z"/><path class="cls-1" d="M22.82,10.09h-.28l-.62-.67c.2-2.53.37-5.06.62-7.58A2.42,2.42,0,0,1,23.12.42a1.38,1.38,0,0,1,2.35.92c.3,1.63.57,3.27.88,4.91a4.34,4.34,0,0,0,.43,1.55c.34.53.87,1.25,1.36,1.29A2.14,2.14,0,0,0,29.7,8c1-1.92,1.85-3.91,2.76-5.88l1,.27-1.16,3,0,.56c-.61,1.47-2.48,2.48-1.53,4.47a7.51,7.51,0,0,1-2.75.15c-.82-.27-1.44-1.11-2.15-1.7l-.33-1.16L25,2.86l-.41,0L24.5,4.18c-.26.42-.84,1-.72,1.22.75,1.17-.15,1.55-.87,2l.56,1.25Zm.42-6.26a.56.56,0,0,0,0,.12l.1,0a.38.38,0,0,0,0-.13Zm.61-1s.08,0,.09-.06,0-.07,0-.11l-.14.08Z"/><path class="cls-1" d="M33.43,2.42l-1-.27a1.46,1.46,0,0,1,2.1-1c1,.36.8,1.2.6,2a56,56,0,0,0-1.34,5.51,3.27,3.27,0,0,0,.67,2.46c.86.88,1.83.13,2.56-.54,1.4-1.3,2.73-2.67,4.11-4,.72-.69,1.53-1.18,2.44-.34s.34,1.57-.18,2.33c-1,1.49-2,3.05-3.08,4.48a2.49,2.49,0,0,0-.17,3.28l-.51.23a1.78,1.78,0,0,1-.7-2.43c1-2,2.2-3.85,3.3-5.77a11.66,11.66,0,0,0,.5-1.08,4,4,0,0,0-1.31.16c-.37.17-.62.58-.92.89l-.61,1.17-.14.28a5.66,5.66,0,0,0-1.79,1c-1.37,1.73-2.34,1.95-4.47.75-.14-1.18-.29-2.35-.43-3.53.31-1.57.61-3.13.92-4.7C34.88,2.35,33.56,2.77,33.43,2.42Z"/><path class="cls-1" d="M41.07,36.14l0,0-1.1.72c-.18.75-.35,1.49-.52,2.23h-.61V36.71l.93-1.41,4-1.25-1.39-1.5,2.8.93.11-.18-2.35-1.88c2.41,1,4.82,2,7.2,3,.23.1.29.55.43.84l-2.46-.76a1.2,1.2,0,0,0,.37.7c.24.42.43.86.64,1.29a3.18,3.18,0,0,1-1.23,0,9,9,0,0,0-1.72,0C37.93,37.86,32.82,38.72,41.07,36.14Z"/><path class="cls-1" d="M31.5,44.26h-.25l-.47.13a.4.4,0,0,1,0-.19l-.27.08v0c-1.36.27-2.77,1.71-2.66,2.75l.6,5.77c-.21-.16-.57-.28-.61-.48-.33-1.58-.61-3.18-.9-4.78.07-.22.25-.6.19-.64-1.12-.8-.62-1.56,0-2.4.19-.28.12-.73.17-1.11h0l2-2.46-.36,1.43,1.59,1c.69-.33,1.28-.87,1.67-.75,1.32.4,1.64-.55,2.16-1.31a4.25,4.25,0,0,1,.57-.55l.31.32.36.57c-.13.7-.31,1.39-.38,2.09-.09,1-.1,2-.14,3-.37-.29-.71-.6-1.1-.86-.66-.45-1.34-.85-2-1.27h0Z"/><path class="cls-1" d="M10.67,17.28c1.16-1,1.26-.19,1.26.76-.7,1.13-1.2,2.5-2.92,2.38l-1.79,0-.13-.07.12.08v1.37l-3-.84c.34.51.37.62.44.65l3.18,1.17c.37.61.72,1.22,1.11,1.82.81,1.27.58,1.81-1,2.28.91-2.14.68-2.68-1.54-3.66L2,21.24a1.45,1.45,0,0,1-1-2c.33-1,.91-1.15,1.92-.93,1.69.39,3.47.4,5.13.87C10.09,19.77,10.74,19.41,10.67,17.28ZM3.3,20.54,1.9,18.93C1.58,20.56,1.58,20.56,3.3,20.54Z"/><path class="cls-1" d="M26.51,47.52c.29,1.6.56,3.2.9,4.78,0,.2.4.32.61.48l.24.09.23.3,0-.42c.05-1.11.11-2.21.14-3.32.05-1.84-.07-3.72,1.42-5.17v0l.27-.08a.4.4,0,0,0,0,.19c0,.11,0,.23,0,.34a36.12,36.12,0,0,0-.79,3.8c-.15,1.56,0,3.14-.16,4.69a2,2,0,0,1-1.05,1.41,1.25,1.25,0,0,1-1.8-1c-.49-2.1-.89-4.21-1.41-6.29-.46-1.86-1.28-2.29-2.74-1.61l-.26-.2.21-.42,1.48-.3c.59.62,1.17,1.24,1.76,1.84C25.92,47,26.22,47.25,26.51,47.52Z"/><path class="cls-1" d="M40.81,38.07c.18-.74.35-1.48.52-2.22l.3.44,1.53,3.21L44.6,41l0,0,.82.86.36.31c.36.4.72.79,1.09,1.18,0,.59.19,1.33-.08,1.74a1.37,1.37,0,0,1-2.07.29c-1.81-1.25-3.61-2.51-5.47-3.69a9.33,9.33,0,0,0-2-.73c1.14-.56,2.08-.08,3,.52a2.87,2.87,0,0,0,1.12.18l.46.09,0,.05.35.37a21.35,21.35,0,0,0,2.11,1.93c.29.21.86,0,1.31,0-.08-.4,0-.91-.24-1.19-.6-.75-1.31-1.42-2-2.12Z"/><path class="cls-1" d="M21.92,9.42l.62.67-2.36,1.18h0l-1.13-.44L17.79,9.1l-1.11-.19c1.13-1.43.08-2.18-.92-2.95l-.88-.28h0c0-1.1-.74-1.24-1.63-1.1A6,6,0,0,1,14.64,3c.22-.13,1.06.47,1.38.92,1.15,1.64,2.17,3.38,3.31,5C20,9.9,20.82,10.54,21.92,9.42Z"/><path class="cls-1" d="M39.66,16.57l.51-.23a4.28,4.28,0,0,0,1.47,0c2.24-.79,4.45-1.68,6.68-2.52a1.4,1.4,0,0,1,1.9.88c.41.82.05,1.38-.67,1.82-1.33.81-2.65,1.65-4,2.47l-.26-.27c.9-.66,1.82-1.3,2.71-2,.54-.42,1.51-.84.79-1.65-.27-.31-1.27,0-1.93.1-.2,0-.36.3-.55.46l-3.16,1c-1.09.49-2.15,1.19-3.42.51Z"/><path class="cls-1" d="M35.05,46.7c0-1,.05-2,.14-3,.07-.7.25-1.39.38-2.09.09-.18.18-.37.26-.55l.84-.06a2.17,2.17,0,0,1,0,.26c-1.38,1.52-.2,5.09,1.13,5.93l-.38-2.06,1.84,4.53-1-1.47-.3.1.22,1.56-.7.19L36.08,49l-.56-1.18h0l-.32-.56Z"/><path class="cls-1" d="M35.05,46.7l.14.51c.1.19.21.37.32.56h0c.19.4.38.79.56,1.18l1.39,1.09.67.35,0-.54L38,48.3l.3-.1,1,1.47a1.4,1.4,0,0,1-.68,2.16c-1,.46-1.54,0-2.07-.77-1.51-2.17-3-4.33-4.56-6.49.67.42,1.35.82,2,1.27C34.34,46.1,34.68,46.41,35.05,46.7Z"/><path class="cls-1" d="M45.58,19a7.69,7.69,0,0,0-1.71,1.53,2.7,2.7,0,0,0-.3,2c.12.36,1,.61,1.61.65,1.5.1,3,0,4.53.08a3.33,3.33,0,0,1,1,.37l-1.08.54-2,.16-2.4-.12A3.11,3.11,0,0,1,42,21.6l3.34-2.87Z"/><path class="cls-1" d="M10.14,37.77c.21-.18.42-.36.62-.55l1.76.84-.06.93a2,2,0,0,0-2.71-.57c-1.59.73-3.21,1.39-4.84,2-.78.32-1.61.76-2.21-.4s.13-1.69.94-2.21l.63-.37,1.37,1.67-.15.51,1.73-1Z"/><path class="cls-1" d="M21.52,35.15c1.77-.87,3.41.14,5.1.37.57.08,1.13.38,1.7.41a3.64,3.64,0,0,0,1.25-.4c-.21-.43-.4-.87-.65-1.28a1.38,1.38,0,0,1-.37-.7L31,34.3c.22,2.25-.34,2.78-2.48,2.33l-1-.19-5-1Z"/><path class="cls-1" d="M50.52,26.88c.38.15,1.54-1.75,2.21-1.49-2.08.34-5,2-6.8,2.25-.67.09-1.07.72-1.76.72-1.46-.17-1.13,1-1.29,1.76l-.62-.29c.51-1.08,1-2.16,1.51-3.23L45,26.17c.09.41.18.82.26,1.22l1.47-.51c.33.13.67.38,1,.35C48.63,27.17,49.57,27,50.52,26.88Z"/><path class="cls-1" d="M50.52,26.88c-1,.13-1.89.29-2.84.35-.32,0-.66-.22-1-.35l2.05-.37.63-.08,1.47-.36c1-.94.93-1.47-.31-1.9l.44-.46,1.29.1.54.44c.63,1.44.32,2.08-1.14,2.38Z"/><path class="cls-1" d="M36.66,41.27a2.17,2.17,0,0,0,0-.26h0l.3-.37-.31-.8,0-.29,2.93.3.28,0h0l.88.15c.25.67.44,1.2.64,1.73a2.87,2.87,0,0,1-1.12-.18c-.95-.6-1.89-1.08-3-.52l-.26.3Z"/><path class="cls-1" d="M.69,31.11l.61-1.37c1.77,1.52,3.85.8,5.82,1,.34,0,.65.37,1,.57Z"/><path class="cls-1" d="M42.88,30.12c.16-.79-.17-1.93,1.29-1.76.06.69.11,1.37.16,2.06l2.34,1.89-.1.18-2.81-.93v0l-.9-1.48Z"/><path class="cls-1" d="M43.47,35.39c1.67.35,6.12.79,7.8,1.14-.88.57-7.14.23-7.83-.48C43.33,35.94,43.45,35.62,43.47,35.39Z"/><path class="cls-1" d="M36.66,41.27l.35,0a3.85,3.85,0,0,0,.4,3.83c.12.66.24,1.33.38,2.06C36.46,46.36,35.28,42.79,36.66,41.27Z"/><path class="cls-1" d="M44.6,41,43.16,39.5Z"/><path class="cls-1" d="M13.44,5.38,14,7.14Z"/><path class="cls-1" d="M46.89,43.4c-.37-.39-.73-.78-1.09-1.18C46.16,42.62,46.52,43,46.89,43.4Z"/><path class="cls-1" d="M41.63,36.29l-.3-.44c.37-.24.74-.48,1.1-.73l-.12.35-.49.73A.37.37,0,0,1,41.63,36.29Z"/><path class="cls-1" d="M51,23.71l-.44.46h-.91l1.08-.54A.25.25,0,0,1,51,23.71Z"/><path class="cls-1" d="M41.82,36.2l.49-.73.63.73Z"/><path class="cls-1" d="M45.44,41.91l-.82-.86Z"/><path class="cls-1" d="M7.86,27.45l-.94-.31L7.77,27Z"/><path class="cls-1" d="M52.8,24.25l-.54-.44Z"/><path class="cls-1" d="M22.87,45.77l-.3.29-.21-.23.25-.27Z"/><path class="cls-1" d="M31.5,44.26l.46.32Z"/><path class="cls-1" d="M30.82,44.73c0-.11,0-.23,0-.34l.47-.13Z"/><path class="cls-1" d="M26.44,37l-.13.27-.16-.16Z"/><path class="cls-1" d="M33.43,2.42c.13.35,1.45-.07.58.91-.27.23-.71.43-.77.71-.29,1.42-.48,2.86-.71,4.29,0,1,.07,1.95.1,2.92l.11,2.1-.52.38c.4.44.68.78,1,1.08s.73.59,1.1.88l.35.45.1-.1-.45-.35.1-.73,2.84,1.32h0l.59.59h0l-.86.75.22.46c-2.6-.56-5.23-1.63-7.6.52,1.29.35.83,1.24.27,2.31l1.87-.13-.71.75,2.1.93-.89.3a4.58,4.58,0,0,1-1.8-.41c-.84-.65-2.26-.61-2.54-2-.1-.49-.23-1-.39-1.63A7.83,7.83,0,0,0,24,18.37c-2.18.28-1.56,1.86-2.61,2.76V19.4a3.27,3.27,0,0,0-.49.1,5.82,5.82,0,0,0-.62.31l-1-3.17-1,1.17c0-2.3.91-3.5,2.9-4.09l-.09-1.41c1.27.91,2.23.8,3-.72l-1.37-1.5c.22-.49.43-1,.64-1.46l1.82,1,.53-.78c.71.59,1.33,1.43,2.15,1.7a7.51,7.51,0,0,0,2.75-.15c-.95-2,.92-3,1.53-4.47l0-.56ZM21.81,13.52l0,.21s.07-.06.08-.1S21.83,13.55,21.81,13.52Z"/><path class="cls-1" d="M26.93,47.52c-.29-.27-.59-.54-.87-.83-.59-.6-1.17-1.22-1.76-1.84-.92-1-1.88-.9-2.36.27l-1.39,1.27-1.27.22c0-.58,0-1.16,0-1.74s0-1-.06-1.47c.46-1.25,1-2.5.32-3.85h0l2.5.44L22,41.47l2.17-.41.38-1.46c-.57-1.5-1.05-2.78-1.4-3.72l-3.57-1.06,2.83-1.25.92,1.11c.83.07,1.43-2.36,2.37-.27l1.45-.92L27.35,35a8.83,8.83,0,0,1,.87-1.18,7.23,7.23,0,0,1,1.09-.7c-.08.22-.15.44-.21.58a7.88,7.88,0,0,0,2.61.48c1.22-.21,1.58.29,1.72,1.29L32,37.19a2.47,2.47,0,0,0-.68.22,1.13,1.13,0,0,0-.34.53c0,.06.21.29.27.27a1.09,1.09,0,0,0,.53-.34,2.47,2.47,0,0,0,.22-.68l1.22-.65,2.12,1.05a2.73,2.73,0,0,0-.81-1.33,12,12,0,0,0-1.05-.83h2.21l-.23.38,1.63,2-2.93,1.49,1.11.24-.32,1.16h0a4.25,4.25,0,0,0-.57.55c-.52.76-.84,1.71-2.16,1.31-.39-.12-1,.42-1.67.75l-1.59-1,.36-1.43-2,2.46L27,42.91l-.18.18.47.28c-.05.38,0,.83-.17,1.11-.58.84-1.08,1.6,0,2.4C27.18,46.92,27,47.3,26.93,47.52Zm-2.3-12-.43-.21-.41.73.46.24Zm-1.79,6.6-.23,0,.11.54L23,42.6Z"/><path class="cls-1" d="M23,35.42c-.14-1-.5-1.5-1.72-1.29a7.88,7.88,0,0,1-2.61-.48l.21-.58,1.47-.6,2.58-1c-.71,1.74.92,1.74,1.75,2.24.31.19,1-.26,1.54-.42l-.11-.3L25,32.74a3.48,3.48,0,0,1,.46-1.13c1-1.08.16-1.66-.55-2.52l-.61,1.2h-.34l-.33-1.8,2.26.35.07-.23L22.13,26c-.64-1-.26-2.16-.3-3.24l.89-.3h0l-.15,2.89H23l.52-1.1c.33.36.64.73,1,1.06a5.33,5.33,0,0,0,.88.48c-.83-2.34,1.16-1.87,2.13-2.48-.29-.38-.64-.66-.72-1a4.23,4.23,0,0,1,.1-1.26l1.66-.39v1.07c.48.06,1.1.05,1.12.16.23,1.19.84.34,1.29.27a4.53,4.53,0,0,0,2.49,2.59c.22.1.33.43.49.65h0l-.56,1.19c-.5,1.07-1,2.15-1.51,3.23-.28.83-1,1.92-.74,2.44.55,1-.34,1.37-.4,2l-.93,1.41c-1.32.33-1.48,2.07-.31,3.53l0,.58h0a.86.86,0,0,0-.28,0l-2.93-.3H24.8l-1.1-.24,2.93-1.49-1.64-2,.24-.38H23ZM25.43,26l.14.52,1.2-.41-.12-.36Zm4.76,8.1-.31-.22-.65.92.33.22Zm-6.08.31.12,0s.05-.1,0-.11a.4.4,0,0,0-.13,0Zm7.37-5.78-.06-.1-.08.17s.08,0,.09,0A.16.16,0,0,0,31.48,28.65Z"/><path class="cls-1" d="M32.55,26l3.78,2.61-.07.23L34,28.49l.34,1.8h.33l.61-1.2c.72.86,1.58,1.44.55,2.52a3.48,3.48,0,0,0-.46,1.13l1.17.27.11.3c-.53.16-1.23.61-1.54.42-.83-.5-2.46-.5-1.74-2.24l-2.59,1,1.13-1.64-.64-.32,1.24-.2-1.12-.78c.19-1,.37-1.94.56-2.92Z"/><path class="cls-1" d="M12.8,36.3V36a7.28,7.28,0,0,0,2.43-.41c.63-.34,1-1.18,1.63-2l-1.6-.94a4.08,4.08,0,0,1,4.5.91L19,34.82l-.53-1c-1.28,1.07-.93,1.92,1.4,3.07l-1.37.47c.24,1,.24,1,3.3.93l-2.25,1.24h0a3.56,3.56,0,0,0-1-.2c-1.21.14-1.51-.37-1.15-1.44a2.77,2.77,0,0,0,.25-.84,1.1,1.1,0,0,0-.36-.8,3.18,3.18,0,0,0-1.09-.11,6.17,6.17,0,0,0,0,1,5,5,0,0,0,.16.81Z"/><path class="cls-1" d="M32,26.61c-.19,1-.37,1.95-.56,2.92h-.61l-.05-.64-.2.05.25.59-1.45,1,.79,1-4.33.9L21.67,30l-.6-2.51,1.06.31a4.36,4.36,0,0,0,3.56,3.48,3.71,3.71,0,0,0,3.78-2,4.26,4.26,0,0,0-.57-5.05c-.15-.19-.31-.37-.47-.56.56.43,1.14.84,1.68,1.3S31.34,26.05,32,26.61Z"/><path class="cls-1" d="M21.67,30l4.12,2.48-2.11,1-1.15-1-1.46-.89c-.39-.87-.72-1.78-1.19-2.61-.9-1.6.13-5.12,1.66-6.32,1-.76,1.75-1.63,3.06-1.68l2.06.3.57.82-4.05,1c-.11-.08-.26-.25-.34-.22C20.26,23.77,19.55,28.16,21.67,30Z"/><path class="cls-1" d="M7.22,20.4l1.79,0-1.2,2.34L4.63,21.59c-.07,0-.1-.14-.44-.65l3,.84V20.41Z"/><path class="cls-1" d="M21.67,30c-2.12-1.82-1.41-6.21,1.17-7.14.08,0,.23.14.34.22-1.14,1.26-2.33,2.5-2.11,4.41Z"/><path class="cls-1" d="M26.66,21.28,24.6,21c.4-.53.81-1.05,1.32-1.71Z"/><path class="cls-1" d="M21.07,31.59l1.46.89-2.36,1.07Z"/><path class="cls-1" d="M23.24,37.36c-.25.17-.39.35-.53.35s-.24-.21-.36-.32c.13-.13.24-.33.4-.37S23,37.19,23.24,37.36Z"/><path class="cls-1" d="M20.2,12.47c.08-.16.15-.33.24-.48l.22.1-.25.48Z"/><path class="cls-1" d="M20.18,11.27l-.38.41-.12-.19.5-.22Z"/><path class="cls-1" d="M15.76,6c1,.77,2,1.52.92,3l-.95-1.48,0-.57v-.3h0Z"/><path class="cls-1" d="M15.76,6.86l0,.57L15,6.92l.78-.36h0Z"/><path class="cls-1" d="M14.88,5.68l-.11.38L14.66,6l.21-.31Z"/><path class="cls-1" d="M12.8,36.3l3.57,1.63a5,5,0,0,1-.16-.81,6.17,6.17,0,0,1,0-1,3.18,3.18,0,0,1,1.09.11,1.1,1.1,0,0,1,.36.8,2.77,2.77,0,0,1-.25.84c-.36,1.07-.06,1.58,1.15,1.44a3.56,3.56,0,0,1,1,.2c.68,1.35.14,2.6-.32,3.85l-1.74-.91.06-.12-.06.12-2,.3-.36.3h0l-.3.29h0l-.31.3h0l-1.2,0c.54-.61.6-1.7,1.73-1.77.09,0,.16-.46.23-.71l-1-.11a18.85,18.85,0,0,0-.75-2.49c-.12-.27-.69-.34-1.05-.5l-1.76-.84c0-.2,0-.55.13-.57C11.52,36.49,12.16,36.4,12.8,36.3Z"/><path class="cls-1" d="M20.55,46.39l1.39-1.27.88,0-.21.42-.25.26c-.55,1.05-1.1,2.1-1.64,3.15l-1.11,2.16-.32-.4v-.3c.11-.28.21-.56.31-.85.2-.59.4-1.18.59-1.78l.06-.9Z"/><path class="cls-1" d="M20.2,47.81c-.19.6-.39,1.19-.59,1.78l-.93-.32.6-1.5Z"/><path class="cls-1" d="M18.68,49.27l.93.32c-.1.29-.2.57-.31.85l-1.1.24Z"/><path class="cls-1" d="M13.39,43.64l1.2,0-1.36,1.26L13,44.79c0-.17,0-.35.05-.52s0-.4,0-.6Z"/><path class="cls-1" d="M20.2,47.81l-.92,0c0-.17,0-.33,0-.5l1-.36Z"/><path class="cls-1" d="M19.29,50.74l.32.4-.35.67c-.14-.1-.42-.26-.41-.3A5.88,5.88,0,0,1,19.29,50.74Z"/><path class="cls-1" d="M12.19,45.75a.79.79,0,0,1-.22,0l-.58,0,.84-.63Z"/><path class="cls-1" d="M26.64,46.91l-1,.36c0-.22,0-.44,0-.66l1.26-.22Z"/><path class="cls-1" d="M12.19,45.75l0-.61.81-.35.19.15Z"/><path class="cls-1" d="M13.1,43.67c0,.2,0,.4,0,.6L12.65,44Z"/><path class="cls-1" d="M11.39,45.77l.58,0-.36.48Z"/><path class="cls-1" d="M14.58,43.68l.31-.3Z"/><path class="cls-1" d="M14.88,43.38l.3-.29Z"/><path class="cls-1" d="M15.18,43.09l.36-.3Z"/><path class="cls-1" d="M10.14,37.77l-2.92.91C7.88,36.73,8.76,36.46,10.14,37.77Z"/><path class="cls-1" d="M25.81,8.89l-.53.78-1.82-1-.55-1.25c.72-.43,1.62-.81.87-2-.12-.18.46-.8.72-1.22.32,1.19.65,2.37,1,3.55Z"/><path class="cls-1" d="M25.48,7.73c-.33-1.18-.66-2.36-1-3.55,0-.42.05-.85.07-1.28l.41,0Z"/><path class="cls-1" d="M32.27,5.41l0,.56Z"/><path class="cls-1" d="M23.24,3.83l.1,0a.38.38,0,0,1,0,.13l-.1,0A.56.56,0,0,1,23.24,3.83Z"/><path class="cls-2" d="M23.85,2.83l-.07-.09.14-.08s0,.08,0,.11S23.88,2.81,23.85,2.83Z"/><path class="cls-1" d="M33.14,22.46,31,21.53l.71-.75-1.87.13c.56-1.07,1-2-.27-2.31,2.37-2.15,5-1.08,7.6-.52L37,17.62l.86-.75.12.06-.12-.06-.59-.59-.12-.07.12.07L34.42,15l-.1.73h0c-.37-.29-.76-.57-1.1-.88s-.6-.64-1-1.08l.52-.38c-.05-.86-.08-1.48-.11-2.1l.89.31c2.13,1.2,3.1,1,4.47-.75a5.66,5.66,0,0,1,1.79-1c0,.25.19.63.09.72-1.35,1.22-1.43,2.94-1.66,4.51a1.82,1.82,0,0,0,1.55,2.14c1.27.68,2.33,0,3.42-.51L41.7,18.21v2.5h-.61l-.44-1-1.08.09.3-1-1.73-1.22-.48,1.51-.86-.32c0,.46.12,1.09,0,1.15-1.23.57-.77,1.71-1,2.61-.07.26-.14.52-.18.64l-2.47-.7Z"/><path class="cls-1" d="M39.76,17.16A1.82,1.82,0,0,1,38.21,15c.23-1.57.31-3.29,1.66-4.51.1-.09,0-.47-.09-.72,0-.09.09-.19.14-.28.2-.39.4-.78.61-1.17s.55-.72.92-.89a4,4,0,0,1,1.31-.16,11.66,11.66,0,0,1-.5,1.08c-1.1,1.92-2.25,3.82-3.3,5.77a1.78,1.78,0,0,0,.7,2.43Z"/><path class="cls-1" d="M25.56,8.33c.22-1.43-.89-4.3-.6-5.72.05-.28-.56.36-.29.12C24.36,4.3,26.42,6.46,26.11,8Z"/><path class="cls-1" d="M32.53,8.33l.56-.3c.14,1.18.29,2.35.43,3.53l-.89-.31C32.6,10.28,32.57,9.3,32.53,8.33Z"/><path class="cls-1" d="M40.53,8.34c-.21.39-.41.78-.61,1.17C40.12,9.12,40.32,8.73,40.53,8.34Z"/><path class="cls-1" d="M41.12,34.31c.07-.67,1-1,.4-2-.29-.52.46-1.61.74-2.44l.62.29,0,0,.9,1.48v0l1.39,1.5Z"/><path class="cls-1" d="M39.9,39.83c0-.19,0-.39,0-.58.11-.39.22-.78.32-1.16l.61,0,2.65,2.78c.08,1.39-1-.17-1.18.45l-.4.51-.46-.1c-.2-.53-.39-1.06-.64-1.73Z"/><path class="cls-1" d="M40.2,38.09c-.1.38-.21.77-.32,1.16-1.17-1.46-1-3.2.31-3.53C40.2,36.51,40.2,37.3,40.2,38.09Z"/><path class="cls-1" d="M28.68,52.87l-.24-.09L27.84,47c-.11-1,1.3-2.48,2.66-2.75-1.48,1.45-1.37,3.33-1.42,5.17,0,1.11-.09,2.21-.14,3.32A1.23,1.23,0,0,0,28.68,52.87Z"/><path class="cls-1" d="M35.83,41.07c-.08.18-.17.37-.26.55l-.36-.57,0,0Z"/><path class="cls-1" d="M30.76,44.2l-.27.08Z"/><path class="cls-1" d="M35.21,41.05l-.31-.32h0l.32.31Z"/><path class="cls-1" d="M27.08,20.54c-1.73,0-1.73,0-1.4-1.61Z"/><path class="cls-1" d="M7.21,20.41l-.12-.08.13.07Z"/><path class="cls-1" d="M22.82,45.15l-.88,0c.48-1.17,1.44-1.27,2.36-.27Z"/><path class="cls-1" d="M28.68,52.87a1.23,1.23,0,0,1,.26-.12l0,.42Z"/><path class="cls-1" d="M42.28,41.3c.21-.62,1.26.94,1.18-.45.67.7,1.38,1.37,2,2.12.22.28.16.79.24,1.19-.45,0-1,.2-1.31,0a21.35,21.35,0,0,1-2.11-1.93.9.9,0,0,0,0-.28Z"/><path class="cls-1" d="M42.28,41.3c0,.21,0,.43,0,.64l-.39-.09,0-.05Z"/><path class="cls-1" d="M41.91,41.85l.39.09a.9.9,0,0,1,0,.28Z"/><path class="cls-1" d="M26.23,18.73,22.89,21.6c-.09-.29-.19-.59-.28-.89h0c1.41-1.26,2.85-2.5,4.22-3.82.28-.26.29-.82.42-1.24.18-.16.35-.43.55-.46.66-.1,1.66-.41,1.93-.1.71.81-.25,1.23-.8,1.65C28.05,17.43,27.13,18.07,26.23,18.73Z"/><path class="cls-1" d="M46.34,15.65c-.13.42-.14,1-.42,1.24-1.36,1.32-2.81,2.56-4.22,3.82v-2.5l1.48-1.56Z"/><path class="cls-1" d="M35.23,41l-.32-.31.32-1.16h.83l.6.29c.11.26.21.53.31.8l-.3.37h0l-.84.06Z"/><path class="cls-1" d="M38.17,49.86l0,.54-.67-.35Z"/><path class="cls-1" d="M36.08,49c-.18-.39-.37-.78-.56-1.18C35.71,48.18,35.9,48.57,36.08,49Z"/><path class="cls-1" d="M35.51,47.77c-.11-.19-.22-.37-.32-.56Z"/><path class="cls-1" d="M41.7,20.71c.1.3.19.6.28.89a3.11,3.11,0,0,0,3.27,2.62l2.4.12c-.07.66-.17,1.26-1.11,1.05-.1,0-.29.4-.44.61L45,26.17l-1.19.43.56-1.19.12.07-.12-.07c-.16-.22-.27-.55-.48-.65a4.55,4.55,0,0,1-2.5-2.59l-.72-1,.46-.52Z"/><path class="cls-1" d="M46.1,26c.15-.21.34-.63.44-.61.94.21,1-.39,1.11-1.05l2-.16h.91c1.24.43,1.33,1,.31,1.9-.56-1.26-1.53-.58-2.36-.48S46.89,25.86,46.1,26Zm2.12-.95.11-.08-.1-.1-.14.14Z"/><path class="cls-1" d="M46.1,26c.79-.14,1.58-.31,2.38-.41s1.8-.78,2.36.48l-1.47.36-.63.08-2.05.37-1.47.51c-.08-.4-.17-.81-.26-1.22Z"/><path class="cls-1" d="M48.74,26.51l.63-.08Z"/><path class="cls-1" d="M36.66,39.85l-.6-.29h.64C36.69,39.65,36.68,39.75,36.66,39.85Z"/><path class="cls-1" d="M36.67,41l.3-.37Z"/><path class="cls-1" d="M39.63,39.86a.89.89,0,0,1,.28,0Z"/><path class="cls-1" d="M43.76,31.58l-.9-1.48Z"/><path class="cls-1" d="M34.32,15.69l.45.35-.1.1-.35-.45Z"/><path class="cls-1" d="M21.81,13.52s.06.08.06.11-.05.07-.08.1A1.49,1.49,0,0,1,21.81,13.52Z"/><path class="cls-1" d="M32,37.19l1.47-1.77h0a12,12,0,0,1,1.05.83,2.73,2.73,0,0,1,.81,1.33l-2.12-1.05L32,37.19Z"/><path class="cls-1" d="M32,37.19a2.47,2.47,0,0,1-.22.68,1.09,1.09,0,0,1-.53.34c-.06,0-.29-.21-.27-.27a1.13,1.13,0,0,1,.34-.53,2.47,2.47,0,0,1,.68-.22Z"/><path class="cls-1" d="M24.63,35.48l-.38.76L23.79,36l.41-.73Z"/><path class="cls-1" d="M22.84,42.08l.13.52-.25.06-.11-.54Z"/><path class="cls-1" d="M27.25,43.37l-.47-.28.18-.18.29.47Z"/><path class="cls-1" d="M41.09,20.7l-.46.52.72,1c-.45.07-1.05.92-1.28-.27,0-.11-.65-.1-1.13-.16V20.67l-1.66.39a3.91,3.91,0,0,0-.09,1.26c.08.34.42.62.71,1-1,.61-3,.14-2.13,2.48a5.33,5.33,0,0,1-.88-.48c-.35-.33-.66-.7-1-1.06l-.53,1.1H33l.15-2.89,2.47.7c0-.12.11-.38.18-.64.22-.9-.24-2,1-2.61.14-.06,0-.69,0-1.15l.86.32.48-1.51,1.73,1.22-.3,1,1.08-.09Z"/><path class="cls-1" d="M35.85,26l1.22-.25.12.36L36,26.54Z"/><path class="cls-1" d="M40.61,34.12,40,35l-.33-.22.65-.92Z"/><path class="cls-1" d="M34.53,34.43l0-.11.12,0s0,.07,0,.11Z"/><path class="cls-1" d="M41.9,28.65a.25.25,0,0,1,0,.09s-.06,0-.09,0l.07-.17Z"/><path class="cls-1" d="M30.78,29.53l-.25-.59.2-.05.05.64Z"/><path class="cls-1" d="M15.76,6.86v0Z"/><path class="cls-1" d="M17.53,42.49l.06-.12-.06.12Z"/><path class="cls-1" d="M37.26,16.28l-.12-.07.12.07Z"/><path class="cls-1" d="M37.85,16.87l.12.06-.12-.06Z"/><path class="cls-1" d="M44.33,25.41l.12.07-.12-.07Z"/><path class="cls-1" d="M48.22,25.05l-.13,0,.14-.14.1.1Z"/><circle class="cls-3" cx="26.29" cy="27.57" r="5.96"/><path class="cls-1" d="M43.42,28.65l11-2.93s.59-.94-.07-1.5a6.71,6.71,0,0,0-3.9-1.36c-1.78,0-2,0-4.08-.14s-2.16.07-2.86-.48a4.21,4.21,0,0,0-1.81-.7l.1,6.31.94,1.81"/></g></g></svg>