<svg xmlns="http://www.w3.org/2000/svg" viewBox="0 0 14.84 23.21"><defs><style>.cls-1{fill:#260d0b;}.cls-2{fill:#f6f6f6;}.cls-3{fill:#45211b;}</style></defs><title>witness_1</title><g id="Layer_2" data-name="Layer 2"><g id="Layer_1-2" data-name="Layer 1"><path class="cls-1" d="M5.47,0A3.48,3.48,0,0,1,7.81,2.05,3.32,3.32,0,0,1,6.74,5.77H9.63C8.74,7.8,8,8.05,4.49,7.42c.1,2.53.13,5,.34,7.49A4.22,4.22,0,0,0,7,17.81a1.67,1.67,0,0,1,.83,1.74,12.5,12.5,0,0,0,0,1.62c0,.86-.1,1.68-1.07,2s-1.43-.23-1.84-1c-.4.8-.94,1.25-1.81,1S2,22.24,2,21.4c0-2,0-4.1,0-6.16-1.4.66-2,.31-2-1.2V7.34C0,6,.22,5.79,1.6,5.79H3a3.56,3.56,0,0,1-1.23-3.1A3.45,3.45,0,0,1,4.2,0Z"/><path class="cls-1" d="M10.39,7.14a4.3,4.3,0,0,0,4.42,1.91c0,1.81.1,3.59-.05,5.34a3.4,3.4,0,0,1-1.09,1.89,34.48,34.48,0,0,1-2.77,2.18.67.67,0,0,1-1,0l-.08-.05c-3.91-2.66-4-2.76-4-7.45V9.05A4.35,4.35,0,0,0,10.39,7.14ZM10.51,17c3.08-2,3.62-3.19,3-6.3l-3-1.21L7.36,10.64C6.81,13.4,7.39,15.76,10.51,17Z"/><path class="cls-2" d="M10.51,17c-3.12-1.22-3.7-3.58-3.15-6.34l3.08-1.17,3,1.21C14.13,13.79,13.59,15,10.51,17Zm1.68-3.3V12.5l-1.14-.08-.11-1.28H9.79l-.12,1.28-1.23.1v1.17l1.24.09L9.78,15h1.16l.11-1.18Z"/><path class="cls-3" d="M12.19,13.68l-1.14.09L10.94,15H9.78l-.1-1.17-1.24-.09V12.52l1.23-.1.12-1.28h1.15l.11,1.28,1.14.08Z"/></g></g></svg>